<?xml version="1.0" encoding="UTF-8"?>
<svg version="1.1" xmlns="http://www.w3.org/2000/svg" width="2122" height="2122">
<path d="M0 0 C700.26 0 1400.52 0 2122 0 C2122 700.26 2122 1400.52 2122 2122 C1421.74 2122 721.48 2122 0 2122 C0 1421.74 0 721.48 0 0 Z " fill="#3262FF" transform="translate(0,0)"/>
<path d="M0 0 C700.26 0 1400.52 0 2122 0 C2122 700.26 2122 1400.52 2122 2122 C1421.74 2122 721.48 2122 0 2122 C0 1421.74 0 721.48 0 0 Z M950.375 220.5 C949.56994019 220.59542084 948.76488037 220.69084167 947.9354248 220.78915405 C938.17044033 221.96838179 928.55513256 223.57149546 918.92819214 225.59484863 C913.78243748 226.67489157 908.646638 227.53950226 903.4375 228.25 C874.16790435 232.57993922 844.43008083 240.43373719 816.3515625 249.59765625 C812.01033642 251.01268229 807.63669406 252.29679174 803.25 253.5625 C792.68553772 256.62829443 782.28521329 260.09168504 772 264 C771.1143335 264.33483398 770.22866699 264.66966797 769.31616211 265.01464844 C723.68633198 282.30148705 678.46543164 302.07609142 636.65917969 327.40576172 C634.09601746 328.94243536 631.51216532 330.43348252 628.9140625 331.91015625 C616.77772168 338.84817861 605.12495417 346.43229382 593.5 354.1875 C592.73554565 354.69706238 591.97109131 355.20662476 591.18347168 355.73162842 C577.66895252 364.75523486 564.39589263 374.0438854 551.5 383.9375 C550.60345703 384.62352295 549.70691406 385.3095459 548.78320312 386.01635742 C546.18581138 388.00705402 543.59190164 390.00216222 541 392 C540.30777344 392.53334961 539.61554688 393.06669922 538.90234375 393.61621094 C530.97863763 399.73796541 523.25457242 406.06135552 515.65625 412.58203125 C513.95314422 414.04011474 512.24290726 415.48946852 510.53125 416.9375 C503.09367844 423.24604407 495.86837129 429.73664633 488.74536133 436.39819336 C487.52468612 437.51846893 486.28874101 438.62222969 485.04174805 439.71313477 C476.61052848 447.1226087 468.7455398 455.10387803 460.82202148 463.04760742 C458.31150926 465.56349286 455.79567936 468.07397186 453.27929688 470.58398438 C451.66113751 472.20280437 450.04328828 473.82193445 448.42578125 475.44140625 C447.31303581 476.55111534 447.31303581 476.55111534 446.17781067 477.6832428 C442.12962983 481.74944793 438.24535996 485.90355497 434.50587463 490.25601196 C432.27715641 492.83714178 429.9493515 495.31713765 427.625 497.8125 C423.35160029 502.43780953 419.31116271 507.20081901 415.36328125 512.109375 C413.20652651 514.74738906 410.997399 517.32319756 408.7590332 519.89135742 C401.98502896 527.67362634 395.70974399 535.77730623 389.50341797 544.01611328 C388.142231 545.81231421 386.76643442 547.59520707 385.37890625 549.37109375 C363.83136023 576.98642873 344.64671333 606.76378155 327 637 C326.3920459 638.04091797 325.7840918 639.08183594 325.15771484 640.15429688 C305.23514238 674.54785736 286.65668929 710.87270652 273.34375 748.3828125 C272.21071476 751.43278528 270.98913561 754.40244028 269.71484375 757.39453125 C266.52032608 765.00886104 263.78872793 772.77151252 261.0625 780.5625 C260.79854431 781.31455719 260.53458862 782.06661438 260.26263428 782.84146118 C253.93709804 800.87764509 248.37134438 818.90087282 243.65966797 837.43066406 C242.78482936 840.83806654 241.86218159 844.23078725 240.9375 847.625 C238.42746951 857.03761434 236.18374321 866.50716537 234 876 C233.72752441 877.17804199 233.45504883 878.35608398 233.17431641 879.56982422 C223.20940688 922.93305545 217.41377055 967.01089975 215.1887207 1011.45141602 C215.05844997 1013.90094394 214.907239 1016.34941658 214.73901367 1018.79663086 C213.7423266 1033.57951298 213.7982457 1048.37741502 213.8125 1063.1875 C213.81291416 1063.87940681 213.81332832 1064.57131363 213.81375504 1065.28418732 C213.82842127 1084.85360986 213.87166644 1104.34085186 215.79101562 1123.83605957 C216.0284377 1126.29445974 216.25105576 1128.75399093 216.47265625 1131.21386719 C219.08642769 1160.03012785 222.84749167 1188.52798375 228 1217 C228.23219238 1218.28455078 228.46438477 1219.56910156 228.70361328 1220.89257812 C231.14106236 1234.13130836 234.17747559 1247.18039253 237.53125 1260.21484375 C238.72261791 1264.85543895 239.82444109 1269.51088877 240.89477539 1274.18066406 C243.18599222 1284.14408375 246.00980401 1293.83469764 249.20703125 1303.54223633 C250.12842896 1306.39805859 251.00410685 1309.2662832 251.87890625 1312.13671875 C254.10424598 1319.39768741 256.4698556 1326.60938974 258.875 1333.8125 C259.20514603 1334.80203171 259.20514603 1334.80203171 259.54196167 1335.81155396 C262.58074697 1344.9053647 265.67688264 1353.96006038 269.17675781 1362.88964844 C270.16956407 1365.43467136 271.14263652 1367.98699474 272.1171875 1370.5390625 C275.88888915 1380.36138623 279.78723887 1390.03675861 284.34765625 1399.51953125 C286.01015823 1403.02139712 287.54288586 1406.55902268 289.0625 1410.125 C302.6885799 1441.63804493 319.22892369 1471.66267931 337 1501 C337.58168945 1501.96341309 338.16337891 1502.92682617 338.76269531 1503.91943359 C346.42521884 1516.57838497 354.51485222 1528.87873135 363 1541 C363.52513184 1541.7532959 364.05026367 1542.5065918 364.59130859 1543.28271484 C370.8944711 1552.31874434 377.31317571 1561.2428778 384 1570 C384.76570312 1571.010625 385.53140625 1572.02125 386.3203125 1573.0625 C400.61079505 1591.85339644 415.85351296 1609.90724185 431.67578125 1627.421875 C433.22059883 1629.13545417 434.75971357 1630.85419243 436.29296875 1632.578125 C440.44070621 1637.23272883 444.68250368 1641.72066768 449.125 1646.09375 C450.88076266 1647.87877537 452.5068229 1649.71555102 454.125 1651.625 C461.44456165 1660.12242214 469.58728086 1668.11972388 478.14453125 1675.36328125 C480.36163584 1677.31900088 482.42375912 1679.3955589 484.5 1681.5 C487.85256779 1684.89268399 491.29475682 1688.09100684 494.9140625 1691.1953125 C497.25025501 1693.21651276 499.52964851 1695.29378839 501.8125 1697.375 C506.52843331 1701.62648533 511.39765458 1705.65047079 516.33349609 1709.64257812 C518.23784112 1711.19372936 520.12923131 1712.75988929 522.01953125 1714.328125 C530.54804318 1721.40118681 539.12721941 1728.36034185 548 1735 C548.68755371 1735.51498047 549.37510742 1736.02996094 550.08349609 1736.56054688 C568.60097227 1750.39317017 587.48815652 1763.60647143 607 1776 C608.22227295 1776.77827148 608.22227295 1776.77827148 609.46923828 1777.57226562 C683.58399057 1824.59114462 764.94371252 1859.48323393 850 1881 C851.20414551 1881.30615234 852.40829102 1881.61230469 853.64892578 1881.92773438 C857.28579984 1882.85160013 860.92385704 1883.77062762 864.5625 1884.6875 C865.64208984 1884.96070068 866.72167969 1885.23390137 867.83398438 1885.51538086 C883.44406353 1889.42143767 899.03894889 1892.65142006 914.9375 1895.125 C917.33575408 1895.50299493 919.7337482 1895.88259243 922.13163757 1896.26289368 C923.67560028 1896.50768167 925.21971683 1896.75150147 926.76399231 1896.99430847 C930.72380909 1897.62066604 934.66467671 1898.29881797 938.6015625 1899.05859375 C952.56119177 1901.64415181 966.87888762 1902.65395187 981 1904 C981.82711487 1904.07945862 982.65422974 1904.15891724 983.50640869 1904.24078369 C1008.55888058 1906.61862233 1033.53893278 1907.27101386 1058.6875 1907.25 C1059.37870438 1907.24973312 1060.06990875 1907.24946625 1060.78205872 1907.24919128 C1084.4667538 1907.23467892 1108.13987848 1906.81432071 1131.75 1904.8125 C1132.84504852 1904.72071472 1132.84504852 1904.72071472 1133.96221924 1904.6270752 C1188.04429199 1900.01256876 1241.92993657 1890.38261685 1294 1875 C1295.59361338 1874.53859038 1297.18735711 1874.07763064 1298.78125 1873.6171875 C1308.98187129 1870.64053561 1319.1056932 1867.41049615 1329.22390747 1864.16662598 C1330.71825821 1863.68792402 1332.21309692 1863.21074214 1333.70846558 1862.73522949 C1341.64019491 1860.20901156 1349.40585037 1857.54684765 1357.05957031 1854.25268555 C1360.23797349 1852.89861823 1363.44294608 1851.63565234 1366.6640625 1850.38671875 C1379.21195647 1845.5214639 1391.66334539 1840.56928341 1403.89550781 1834.95507812 C1406.012304 1833.9944161 1408.1401822 1833.0641038 1410.2734375 1832.140625 C1435.87767815 1820.98086827 1460.95314707 1808.19958072 1485 1794 C1486.25707764 1793.26305908 1486.25707764 1793.26305908 1487.53955078 1792.51123047 C1508.98179127 1779.91935243 1529.72216776 1766.38797475 1550 1752 C1550.81484863 1751.42362793 1551.62969727 1750.84725586 1552.46923828 1750.25341797 C1570.68461402 1737.34312357 1588.17855717 1723.549034 1605.17407227 1709.07421875 C1608.48642248 1706.25810993 1611.84713621 1703.51932347 1615.25 1700.8125 C1621.63472257 1695.62083508 1627.54223388 1689.93254057 1633.49609375 1684.2578125 C1636.84341707 1681.07004834 1640.24802713 1677.95300665 1643.671875 1674.84765625 C1649.97888862 1669.10142703 1656.03502025 1663.1172437 1662.05639648 1657.07397461 C1663.82487219 1655.30008997 1665.59870044 1653.53168223 1667.37304688 1651.76367188 C1672.58368398 1646.55608368 1677.7263766 1641.34819877 1682.50756836 1635.73754883 C1685.03283774 1632.79752884 1687.71616243 1630.00620954 1690.375 1627.1875 C1695.00596215 1622.23905028 1699.40498195 1617.18127256 1703.640625 1611.88671875 C1705.90169322 1609.12027932 1708.23180908 1606.43586021 1710.59375 1603.75610352 C1717.5718459 1595.83065703 1724.03106663 1587.59851212 1730.37060547 1579.15722656 C1731.99440442 1577.00740823 1733.63610474 1574.87268172 1735.28515625 1572.7421875 C1759.38110456 1541.59507933 1780.78873126 1508.35502597 1800 1474 C1800.46164551 1473.18112305 1800.92329102 1472.36224609 1801.39892578 1471.51855469 C1845.16276236 1393.73330658 1875.89421644 1308.32317486 1904.25 1136.9375 C1904.33317474 1136.02659607 1904.41634949 1135.11569214 1904.50204468 1134.17718506 C1905.0480281 1128.12148299 1905.54640332 1122.06331425 1906 1116 C1906.05514771 1115.27660431 1906.11029541 1114.55320862 1906.16711426 1113.80789185 C1907.42443313 1096.59740648 1907.24423945 1079.30913172 1907.25 1062.0625 C1907.25058914 1061.25422886 1907.25117828 1060.44595772 1907.25178528 1059.61319351 C1907.26547235 1032.96458488 1906.60298529 1006.53862451 1904 980 C1903.84833795 978.40106961 1903.69697158 976.80211114 1903.54589844 975.203125 C1901.5479632 954.32708047 1898.66851247 933.64944903 1895 913 C1894.69642578 911.28780273 1894.69642578 911.28780273 1894.38671875 909.54101562 C1891.70110722 894.59688695 1888.41311182 879.84859848 1884.76171875 865.11328125 C1883.99668675 861.98645816 1883.25963219 858.85429901 1882.53125 855.71875 C1876.77384801 831.00245572 1869.19207797 806.99817079 1861 783 C1860.66436035 782.01386719 1860.3287207 781.02773438 1859.98291016 780.01171875 C1844.00929921 733.22050219 1823.29488949 687.58950131 1798.58935547 644.76855469 C1797.04379975 642.07629634 1795.52028357 639.37284334 1794.00390625 636.6640625 C1776.37310805 605.25673579 1755.73296654 575.68513903 1734 547 C1733.57750977 546.43958008 1733.15501953 545.87916016 1732.71972656 545.30175781 C1719.20194877 527.3833497 1704.70251792 510.13977602 1689.453125 493.671875 C1687.40312483 491.43907227 1685.40825421 489.17728295 1683.4375 486.875 C1679.95787529 482.85298775 1676.17598063 479.16187591 1672.39453125 475.42578125 C1670.39739109 473.40257727 1668.52509316 471.35339764 1666.6875 469.1875 C1659.74985033 461.09905536 1652.01061587 453.56363196 1643.890625 446.671875 C1641.66352921 444.70245971 1639.58785046 442.61625658 1637.5 440.5 C1634.14743221 437.10731601 1630.70524318 433.90899316 1627.0859375 430.8046875 C1624.74974499 428.78348724 1622.47035149 426.70621161 1620.1875 424.625 C1615.86739209 420.72636603 1611.41928619 417.02496142 1606.89453125 413.3671875 C1604.38627168 411.3158983 1601.91861567 409.22532672 1599.4621582 407.11254883 C1591.87195108 400.59648269 1583.96680168 394.53925 1575.98681641 388.51074219 C1574.22306058 387.16961156 1572.47294725 385.81389885 1570.73046875 384.4453125 C1522.27332251 346.50069221 1466.65850262 313.38587677 1410.17578125 288.9453125 C1408.14152007 288.06148628 1406.1164149 287.15999239 1404.09375 286.25 C1392.95208517 281.26080902 1381.60556992 276.77935579 1370.25292969 272.29589844 C1368.00387877 271.39992409 1365.76001759 270.49085202 1363.52050781 269.57128906 C1354.52447354 265.89664996 1345.43202581 262.67544339 1336.20166016 259.64013672 C1333.86853121 258.8728727 1331.53762964 258.09913173 1329.20703125 257.32421875 C1292.86020385 245.27011871 1255.70833752 234.98713462 1217.94140625 228.51757812 C1214.3148199 227.87943378 1210.70668969 227.16339325 1207.09619141 226.44067383 C1123.03050402 209.74580182 1035.12549741 210.38338657 950.375 220.5 Z " fill="#FEFEFF" transform="translate(0,0)"/>
<path d="M0 0 C1.18400391 0.2165625 2.36800781 0.433125 3.58789062 0.65625 C18.19755558 3.36959462 32.63003287 6.73354662 47.05566406 10.28564453 C49.8423533 10.96175172 52.63355139 11.61032883 55.4296875 12.24609375 C67.51874002 15.00682572 79.33651419 18.39136143 91.16430664 22.11157227 C94.2088359 23.06542866 97.25823437 24.00246289 100.30859375 24.9375 C107.23820149 27.06799341 114.15431542 29.23857813 121.0625 31.4375 C122.8269043 31.99147461 122.8269043 31.99147461 124.62695312 32.55664062 C131.29935817 34.68487595 137.76369803 37.05780538 144.20141602 39.81469727 C148.3980336 41.59211839 152.6667922 43.16133867 156.9375 44.75 C167.77354093 48.83539967 178.40239046 53.33517936 189 58 C190.18698486 58.51916992 190.18698486 58.51916992 191.39794922 59.04882812 C214.79539487 69.30497606 237.74294455 80.45672187 260 93 C261.72654663 93.96226807 263.45310914 94.92450763 265.1796875 95.88671875 C297.45401645 113.98997862 328.58703762 134.54064558 358 157 C359.010625 157.76570312 360.02125 158.53140625 361.0625 159.3203125 C373.82412625 169.0255332 386.20402691 179.21033241 398.38916016 189.62744141 C400.03894684 191.03318568 401.69654745 192.42927109 403.35546875 193.82421875 C411.79614853 200.94990421 419.88117077 208.40585692 427.89404297 216.00732422 C430.06953978 218.06579918 432.25415845 220.11417516 434.44140625 222.16015625 C454.29339052 240.73943797 454.29339052 240.73943797 462.15625 249.9375 C464.34796313 252.38924689 466.66067104 254.68885573 469 257 C472.57083512 260.53313399 475.96551225 264.13373095 479.23046875 267.94921875 C481.23786023 270.27566583 483.30466638 272.54192686 485.375 274.8125 C489.62648533 279.52843331 493.65047079 284.39765458 497.64257812 289.33349609 C499.19372936 291.23784112 500.75988929 293.12923131 502.328125 295.01953125 C509.40118681 303.54804318 516.36034185 312.12721941 523 321 C523.51498047 321.68755371 524.02996094 322.37510742 524.56054688 323.08349609 C544.96549936 350.3992274 563.71881873 378.6058412 581 408 C581.51095215 408.86206055 582.0219043 409.72412109 582.54833984 410.61230469 C608.11491893 453.82895121 630.72321383 500.65446288 646.1484375 548.47265625 C646.96785636 550.90460121 647.89188634 553.25513658 648.875 555.625 C658.79306492 579.93398264 664.79314496 605.90819033 671.0703125 631.328125 C671.99603715 634.9843484 672.99380107 638.61520385 674 642.25 C678.46169356 659.00729092 681.09166977 676.15181012 683.89404297 693.24682617 C684.07866341 694.37273666 684.07866341 694.37273666 684.26701355 695.52139282 C684.50974725 697.00282475 684.75203059 698.48433054 684.99385071 699.96591187 C685.63191579 703.85272478 686.316264 707.72563154 687.05859375 711.59375 C689.56949128 725.24032371 690.64815476 739.19942918 692 753 C692.07945862 753.79881592 692.15891724 754.59763184 692.24078369 755.4206543 C697.32502121 807.02321504 697.14161221 860.31515693 692.19598389 911.91833496 C691.90208101 915.04005759 691.64412534 918.16479039 691.37890625 921.2890625 C686.92985312 970.25700742 677.58151437 1020.32783215 662.84082031 1067.25708008 C661.96723331 1070.10689134 661.12927185 1072.96625072 660.29580688 1075.82801819 C657.72663463 1084.64512796 655.02250523 1093.41114052 652.19775391 1102.1496582 C651.49502336 1104.32792618 650.80019929 1106.50862239 650.10546875 1108.68945312 C647.78392905 1115.91972486 645.29715636 1122.97725937 642.29101562 1129.95825195 C640.82938649 1133.40198065 639.46957203 1136.88057651 638.125 1140.37109375 C622.45854213 1180.90558424 604.1828376 1220.58361227 582 1258 C581.51160645 1258.83225098 581.02321289 1259.66450195 580.52001953 1260.52197266 C567.92581842 1281.97063018 554.39187869 1302.7166657 540 1323 C539.42362793 1323.81484863 538.84725586 1324.62969727 538.25341797 1325.46923828 C525.34312357 1343.68461402 511.549034 1361.17855717 497.07421875 1378.17407227 C494.25810993 1381.48642248 491.51932347 1384.84713621 488.8125 1388.25 C483.62083508 1394.63472257 477.93254057 1400.54223388 472.2578125 1406.49609375 C469.07004834 1409.84341707 465.95300665 1413.24802713 462.84765625 1416.671875 C457.10142703 1422.97888862 451.1172437 1429.03502025 445.07397461 1435.05639648 C443.30008997 1436.82487219 441.53168223 1438.59870044 439.76367188 1440.37304688 C434.55608368 1445.58368398 429.34819877 1450.7263766 423.73754883 1455.50756836 C420.79752884 1458.03283774 418.00620954 1460.71616243 415.1875 1463.375 C410.23905028 1468.00596215 405.18127256 1472.40498195 399.88671875 1476.640625 C397.11996893 1478.90194691 394.43527757 1481.23238256 391.75512695 1483.59448242 C383.76997396 1490.62568908 375.46822654 1497.12900429 366.96337891 1503.51708984 C365.18721444 1504.85859978 363.42405873 1506.21440481 361.66796875 1507.58203125 C330.29805954 1532.00715553 296.68986183 1553.6220579 262 1573 C261.14921875 1573.47759766 260.2984375 1573.95519531 259.421875 1574.44726562 C229.27833109 1591.32308301 198.16884418 1605.89913174 166.1875 1618.9375 C165.52703674 1619.2071759 164.86657349 1619.47685181 164.18609619 1619.75469971 C156.20900656 1623.00327583 148.18683001 1626.05988556 140.0612793 1628.91943359 C137.68767712 1629.75726462 135.32868703 1630.61629184 132.9765625 1631.51171875 C115.75260941 1638.02432634 98.33303233 1643.71013442 80.51074219 1648.32763672 C78.11927147 1648.96805974 75.75143535 1649.65901084 73.3828125 1650.37890625 C23.8442862 1665.39543346 -28.38632073 1673.38050768 -79.875 1677.75 C-80.90806778 1677.83888489 -80.90806778 1677.83888489 -81.96200562 1677.92956543 C-105.69796308 1679.93412118 -129.50445295 1680.24311038 -153.3125 1680.25 C-154.37163919 1680.25066278 -154.37163919 1680.25066278 -155.45217514 1680.25133896 C-180.73732243 1680.25958441 -205.82105609 1679.45013946 -231 1677 C-231.91100464 1676.91278687 -232.82200928 1676.82557373 -233.76062012 1676.73571777 C-257.50135342 1674.45060678 -280.95542567 1671.36988234 -304.35229492 1666.71630859 C-306.88460757 1666.21903229 -309.41593878 1665.73538638 -311.9543457 1665.27197266 C-320.92911947 1663.63350128 -329.81016843 1661.73926701 -338.6875 1659.625 C-340.00075889 1659.31422098 -341.31407367 1659.00367806 -342.62744141 1658.69335938 C-345.2267979 1658.07879586 -347.82566433 1657.46227382 -350.42431641 1656.84472656 C-353.53402533 1656.11008278 -356.64638789 1655.39001628 -359.76171875 1654.6796875 C-378.56883424 1650.36564328 -396.95444512 1644.72025061 -415.3125 1638.8125 C-416.29328522 1638.4972789 -416.29328522 1638.4972789 -417.29388428 1638.1756897 C-425.25858118 1635.60996808 -433.1589126 1632.92136951 -441 1630 C-442.14819214 1629.57835571 -442.14819214 1629.57835571 -443.31958008 1629.14819336 C-486.02456983 1613.42060714 -527.81859411 1594.32962015 -567.23583984 1571.58496094 C-569.91344752 1570.04962893 -572.60387398 1568.54018545 -575.30078125 1567.0390625 C-587.59895026 1560.16719996 -599.42189629 1552.70268558 -611.14794922 1544.89794922 C-613.97023322 1543.01980885 -616.79886871 1541.1515875 -619.62890625 1539.28515625 C-654.38255126 1516.31193607 -687.74029578 1490.77566956 -718.32421875 1462.45703125 C-720.57957151 1460.38605769 -722.86404866 1458.36849376 -725.1875 1456.375 C-728.91252667 1453.15127091 -732.34241463 1449.67330809 -735.80078125 1446.16796875 C-737.70624393 1444.28958192 -739.64672321 1442.53998057 -741.6875 1440.8125 C-750.16946217 1433.52278151 -758.14024067 1425.38848142 -765.36328125 1416.85546875 C-767.31900088 1414.63836416 -769.3955589 1412.57624088 -771.5 1410.5 C-774.87100065 1407.16879193 -778.0451403 1403.74888372 -781.12890625 1400.15234375 C-783.33079829 1397.61947838 -785.60195826 1395.15667478 -787.875 1392.6875 C-792.3232035 1387.80516252 -796.52722696 1382.7732526 -800.671875 1377.6328125 C-802.17431738 1375.78569216 -803.69516863 1373.95472155 -805.21875 1372.125 C-818.15705493 1356.57179554 -830.28081792 1340.48786466 -842 1324 C-842.57927246 1323.18595703 -843.15854492 1322.37191406 -843.75537109 1321.53320312 C-875.2237789 1277.21440754 -903.93339056 1229.19982759 -925 1179 C-925.31469238 1178.25137695 -925.62938477 1177.50275391 -925.95361328 1176.73144531 C-927.74829044 1172.44217606 -929.51099339 1168.14059773 -931.25634766 1163.83105469 C-932.30207247 1161.25622339 -933.36812188 1158.6900864 -934.4375 1156.125 C-934.83710937 1155.15820312 -935.23671875 1154.19140625 -935.6484375 1153.1953125 C-936.62688741 1150.88209856 -937.63022036 1148.59266058 -938.6640625 1146.3046875 C-945.19680608 1131.61161789 -950.00998897 1116.34178707 -954.98568726 1101.07138062 C-956.3059865 1097.03975978 -957.69293004 1093.04588471 -959.17578125 1089.0703125 C-961.08318523 1083.91416254 -962.5467569 1078.69065448 -963.9375 1073.375 C-965.50645068 1067.4770727 -967.09367992 1061.59866068 -968.89697266 1055.76782227 C-972.07550225 1045.4614079 -974.29808705 1034.96434301 -976.58203125 1024.4296875 C-977.94911418 1018.1500795 -979.48490414 1011.93160947 -981.140625 1005.72265625 C-982.34179823 1000.51939221 -983.1559071 995.27131359 -984 990 C-984.38220286 987.68870119 -984.76503794 985.37750685 -985.1484375 983.06640625 C-989.52693669 956.39058636 -993.37410541 929.71867279 -995.67529297 902.77099609 C-995.88073848 900.3850477 -996.09480927 897.99981272 -996.32080078 895.61572266 C-1002.37967857 831.04210441 -998.20568985 763.93370867 -988 700 C-987.82388184 698.87255371 -987.64776367 697.74510742 -987.46630859 696.58349609 C-983.13715434 669.12439925 -977.12637107 641.8685973 -970 615 C-969.81937012 614.31083496 -969.63874023 613.62166992 -969.45263672 612.91162109 C-964.15651415 592.82207008 -957.99360993 572.84173484 -950.84814453 553.33251953 C-949.82061132 550.50665532 -948.8146653 547.67341873 -947.80859375 544.83984375 C-947.01843501 542.62232248 -946.22807053 540.4048745 -945.4375 538.1875 C-945.07333984 537.16108398 -944.70917969 536.13466797 -944.33398438 535.07714844 C-941.77875293 527.95048409 -938.96556018 520.96503471 -936 514 C-935.6496167 513.16686279 -935.2992334 512.33372559 -934.93823242 511.4753418 C-920.26863435 476.60708147 -904.23513978 441.99082389 -884.578125 409.62695312 C-883.04675671 407.07783141 -881.56307413 404.50716678 -880.09375 401.921875 C-873.15513384 389.78247005 -865.56933681 378.12739846 -857.8125 366.5 C-857.30293762 365.73554565 -856.79337524 364.97109131 -856.26837158 364.18347168 C-846.90565363 350.16107033 -837.20479295 336.42458107 -827 323 C-826.23171875 321.98550781 -825.4634375 320.97101563 -824.671875 319.92578125 C-812.12178965 303.46897578 -798.90967873 287.54032907 -785 272.21484375 C-783.20396471 270.22587498 -781.44046697 268.21436806 -779.6875 266.1875 C-769.62772911 254.68630658 -758.96909624 243.80994801 -748.15332031 233.02294922 C-745.73646008 230.61149034 -743.3250471 228.19467561 -740.9140625 225.77734375 C-739.35448749 224.21842898 -737.7946026 222.65982414 -736.234375 221.1015625 C-735.52585388 220.39101715 -734.81733276 219.6804718 -734.08734131 218.94839478 C-730.10149361 214.98098535 -726.01998668 211.18404986 -721.75538635 207.51727295 C-719.17134464 205.28374949 -716.68677804 202.95299884 -714.1875 200.625 C-709.56219047 196.35160029 -704.79918099 192.31116271 -699.890625 188.36328125 C-697.25323281 186.20703494 -694.67797121 183.99854176 -692.1105957 181.76049805 C-684.43627482 175.08149632 -676.45787163 168.8872055 -668.33203125 162.77001953 C-665.90388123 160.92704553 -663.49734769 159.05845654 -661.09375 157.18359375 C-649.01213734 147.79577606 -636.55237051 139.17418624 -623.74658203 130.80615234 C-621.30429826 129.20010654 -618.88000422 127.57221051 -616.46484375 125.92578125 C-568.77774782 93.45528399 -516.38335957 66.36289096 -462.625 45.5 C-461.99536346 45.25556152 -461.36572693 45.01112305 -460.7170105 44.75927734 C-452.627993 41.6339721 -444.48073002 38.77241799 -436.23706055 36.08959961 C-433.50329848 35.16941105 -430.84780127 34.17345551 -428.1875 33.0625 C-415.23627711 27.76717242 -401.78092531 24.0273316 -388.28125 20.4296875 C-384.4599646 19.40749365 -380.66958459 18.31704841 -376.88769531 17.15869141 C-347.28262761 8.10816871 -316.54119234 1.82869301 -285.92431641 -2.56396484 C-282.97121447 -3.00429212 -280.02934598 -3.49137741 -277.0859375 -3.9921875 C-186.19920644 -19.27220695 -90.53221944 -16.61638741 0 0 Z M-219.92297363 81.79107666 C-222.65836324 82.06622325 -225.39548857 82.32103033 -228.1328125 82.57608032 C-242.49703242 83.91985416 -256.7661874 85.64917675 -271 88 C-272.36330444 88.21789185 -272.36330444 88.21789185 -273.75415039 88.44018555 C-286.5881779 90.51998319 -299.28810067 93.28652535 -312 96 C-313.93649414 96.41258057 -313.93649414 96.41258057 -315.91210938 96.83349609 C-344.98324991 103.07816416 -374.1553998 110.57578184 -401.96533203 121.22436523 C-404.28252732 122.1077021 -406.61114925 122.95641739 -408.94140625 123.8046875 C-434.3005306 133.10736098 -458.99561947 143.62197494 -483.19726562 155.61181641 C-485.5902607 156.79705769 -487.98843398 157.97028115 -490.390625 159.13671875 C-538.11348942 182.4525755 -583.39415762 211.80055387 -624.328125 245.62792969 C-626.54838057 247.45004363 -628.80459232 249.22486864 -631.0625 251 C-641.01568687 258.94582145 -650.52982178 267.45239937 -659.87011719 276.10571289 C-661.88860299 277.97550868 -663.91501897 279.83520494 -665.94726562 281.69018555 C-673.37825765 288.47810374 -680.60169722 295.44419195 -687.70458984 302.57421875 C-689.39175958 304.26681347 -691.08430196 305.95390597 -692.77734375 307.640625 C-697.85758074 312.71775427 -702.85373559 317.8070584 -707.51904297 323.27392578 C-709.88596576 326.03260434 -712.38873818 328.66182612 -714.875 331.3125 C-719.35867269 336.13236077 -723.6162423 341.07503978 -727.73828125 346.2109375 C-729.74604509 348.6868328 -731.80051667 351.11398396 -733.87988281 353.52978516 C-740.33648933 361.04715276 -746.3784223 368.84893407 -752.32617188 376.77294922 C-753.41984687 378.22809847 -754.51734685 379.68038287 -755.61914062 381.12939453 C-782.68681105 416.73139998 -805.65271955 455.22961535 -826 495 C-826.35868164 495.69544922 -826.71736328 496.39089844 -827.08691406 497.10742188 C-829.45732909 501.70701568 -831.74568985 506.3425011 -834 511 C-834.4542334 511.93215332 -834.9084668 512.86430664 -835.37646484 513.82470703 C-842.34375761 528.20305482 -848.65296461 542.73485184 -854.4375 557.625 C-854.72441711 558.3610144 -855.01133423 559.09702881 -855.3069458 559.85534668 C-859.06265796 569.52432503 -862.49654411 579.27015089 -865.71679688 589.13012695 C-866.75722712 592.30429076 -867.87731029 595.43896584 -869.0625 598.5625 C-874.84651116 614.30259595 -878.72438369 630.80684086 -883 647 C-883.21043945 647.7935791 -883.42087891 648.5871582 -883.63769531 649.40478516 C-885.96057594 658.21423874 -887.88561344 667.05720208 -889.60620117 676.00146484 C-890.29577177 679.57446349 -891.02340404 683.08982878 -891.94140625 686.61328125 C-893.62844382 693.21948541 -894.68089533 699.96843933 -895.8125 706.6875 C-895.94217163 707.45733215 -896.07184326 708.22716431 -896.20544434 709.02032471 C-898.46569524 722.59254716 -900.22382307 736.20213326 -901.75 749.875 C-901.85059723 750.76013275 -901.95119446 751.6452655 -902.05484009 752.55722046 C-904.96509746 778.4068712 -906.34853534 804.23127122 -906.26074219 830.23364258 C-906.24929119 833.64593796 -906.25617833 837.05792303 -906.26762676 840.47020817 C-906.31315212 856.51072917 -905.77089254 872.38239755 -904.24700928 888.35562134 C-903.95703477 891.45996787 -903.71196142 894.56625485 -903.47645569 897.67512512 C-901.46792661 924.17373757 -898.06666411 950.45634729 -892.52246094 976.45898438 C-891.92872117 979.34666826 -891.3870056 982.24157032 -890.8515625 985.140625 C-886.64639825 1007.88550651 -880.94223651 1029.94397995 -874 1052 C-873.53970433 1053.47765907 -873.08001943 1054.95550862 -872.62109375 1056.43359375 C-871.81367515 1059.03161837 -871.00042384 1061.62754688 -870.18359375 1064.22265625 C-869.35293632 1066.87363229 -868.53207294 1069.52618255 -867.72265625 1072.18359375 C-867.50754395 1072.88492432 -867.29243164 1073.58625488 -867.07080078 1074.30883789 C-866.48079699 1076.23374231 -865.89454627 1078.15979598 -865.30859375 1080.0859375 C-864.10200736 1083.83794508 -862.6422758 1087.46710361 -861.15795898 1091.11669922 C-859.83327276 1094.41514837 -858.56504121 1097.73261219 -857.30078125 1101.0546875 C-851.98946876 1114.9870088 -846.57925544 1128.8118987 -840.24853516 1142.3203125 C-838.81712623 1145.3924956 -837.41424638 1148.47702767 -836.01171875 1151.5625 C-817.11946573 1192.9538654 -794.39547461 1231.94572957 -768 1269 C-767.40912598 1269.83321777 -766.81825195 1270.66643555 -766.20947266 1271.52490234 C-759.07620313 1281.57218836 -751.72647138 1291.40180079 -744 1301 C-743.23453857 1301.95471191 -743.23453857 1301.95471191 -742.45361328 1302.92871094 C-732.23861752 1315.65630371 -721.77985856 1328.12988862 -710.66796875 1340.0859375 C-708.69949464 1342.23598389 -706.78914113 1344.40495536 -704.89160156 1346.61547852 C-700.80447336 1351.29142491 -696.46205857 1355.68199065 -692.06640625 1360.06640625 C-691.22963852 1360.90413071 -690.39287079 1361.74185516 -689.53074646 1362.60496521 C-687.77131896 1364.36506935 -686.01064347 1366.12392677 -684.2487793 1367.8815918 C-681.57030589 1370.55470972 -678.89721127 1373.23312251 -676.22460938 1375.91210938 C-674.50552885 1377.63052903 -672.78613811 1379.34863842 -671.06640625 1381.06640625 C-669.88166466 1382.25418419 -669.88166466 1382.25418419 -668.67298889 1383.46595764 C-663.94017853 1388.1790764 -659.06677885 1392.64990187 -654 1397 C-652.39231627 1398.45445517 -650.78760285 1399.91220895 -649.1875 1401.375 C-644.92119411 1405.22050182 -640.548307 1408.89731266 -636.08203125 1412.5078125 C-633.86080631 1414.30393609 -631.65099623 1416.11008536 -629.44921875 1417.9296875 C-618.88598221 1426.63232324 -608.01187783 1434.87515593 -597 1443 C-596.24992676 1443.556875 -595.49985352 1444.11375 -594.72705078 1444.6875 C-582.16628743 1453.99964534 -569.18538844 1462.60026873 -556 1471 C-555.11940918 1471.56219238 -554.23881836 1472.12438477 -553.33154297 1472.70361328 C-485.54248034 1515.80951958 -411.07934847 1547.06570219 -333.15283203 1566.22167969 C-329.8513415 1567.03669841 -326.55489888 1567.86993397 -323.25952148 1568.70922852 C-317.14960913 1570.25985921 -311.02061638 1571.72353933 -304.875 1573.125 C-304.1948584 1573.28379639 -303.5147168 1573.44259277 -302.81396484 1573.60620117 C-297.14788593 1574.87549365 -291.44402986 1575.6739892 -285.69433594 1576.46875 C-280.90589293 1577.15733393 -276.14478669 1577.97679899 -271.37817383 1578.80126953 C-256.63324628 1581.34312845 -241.90148807 1583.58625914 -227 1585 C-226.30463135 1585.06680969 -225.6092627 1585.13361938 -224.89282227 1585.20245361 C-140.26955772 1593.24847102 -54.07839177 1587.3590032 28.42138672 1566.88476562 C31.83157985 1566.04163969 35.24511736 1565.21387051 38.66015625 1564.390625 C48.48261258 1562.00601754 58.14566744 1559.48324258 67.69140625 1556.15234375 C74.17527709 1553.89408885 80.76779584 1551.96174103 87.34765625 1550.00390625 C89.00087891 1549.50697266 89.00087891 1549.50697266 90.6875 1549 C91.66074219 1548.71125 92.63398437 1548.4225 93.63671875 1548.125 C97.28243836 1546.90552585 100.81736957 1545.49714203 104.37866211 1544.05273438 C107.69362715 1542.72143799 111.03453352 1541.46631048 114.37890625 1540.21118164 C124.5420889 1536.39319976 134.57400097 1532.3301206 144.54931641 1528.04736328 C147.12593723 1526.94617745 149.70883394 1525.86077038 152.29296875 1524.77734375 C162.41748571 1520.51487169 172.32852698 1516.0052881 182.09375 1510.97509766 C184.66224728 1509.66124287 187.24828914 1508.38406035 189.83447266 1507.10546875 C193.2319632 1505.42140037 196.61658713 1503.71213577 200 1502 C200.70930664 1501.64244629 201.41861328 1501.28489258 202.14941406 1500.91650391 C230.31582395 1486.64593925 257.55329804 1469.68441718 283 1451 C284.11539183 1450.20710332 285.23262683 1449.41679396 286.3515625 1448.62890625 C305.79336587 1434.93334004 324.29380144 1420.04664046 342.26904297 1404.48828125 C344.0353115 1402.96963908 345.8144016 1401.46739663 347.59765625 1399.96875 C354.13430846 1394.45953906 360.36883535 1388.82331383 366.3046875 1382.66796875 C368.38585898 1380.60791061 370.47464058 1378.70113037 372.69140625 1376.796875 C377.71166461 1372.44838289 382.37860817 1367.76756994 387.0625 1363.0625 C387.92166016 1362.20720703 388.78082031 1361.35191406 389.66601562 1360.47070312 C394.08227647 1356.04769475 398.35207589 1351.56196908 402.42456055 1346.82055664 C404.83222229 1344.03829511 407.35823629 1341.37066481 409.875 1338.6875 C414.3337948 1333.89485085 418.56120791 1328.97810172 422.66015625 1323.87109375 C424.8585979 1321.17350675 427.11068081 1318.53675697 429.390625 1315.90844727 C435.07228653 1309.35785739 440.48692687 1302.66701478 445.69628906 1295.73339844 C447.08043288 1293.8930574 448.47349576 1292.05968143 449.8671875 1290.2265625 C483.46346094 1245.90257557 513.7817137 1197.67882648 535.89941406 1146.53808594 C537.09431165 1143.78250578 538.30795808 1141.03562274 539.5234375 1138.2890625 C546.22813833 1123.08427558 552.37909274 1107.75378168 557.890625 1092.078125 C558.84321591 1089.43502063 559.86099636 1086.8441973 560.9375 1084.25 C566.80919843 1069.71167468 570.92455723 1054.56752682 575.04541016 1039.46362305 C575.74222001 1036.93532603 576.45004856 1034.411738 577.16943359 1031.88989258 C580.29297831 1020.89424266 583.01173906 1009.84325052 585.5 998.6875 C585.79080948 997.38898605 585.79080948 997.38898605 586.0874939 996.0642395 C593.15034443 964.41674142 597.82705486 932.4825131 600.6875 900.1875 C600.74834778 899.503461 600.80919556 898.819422 600.87188721 898.11465454 C601.28498523 893.41234283 601.6563569 888.70787501 602 884 C602.0494577 883.34039276 602.09891541 882.68078552 602.14987183 882.00119019 C603.22249294 867.2447876 603.2001435 852.4760627 603.1875 837.6875 C603.18689575 836.38253571 603.1862915 835.07757141 603.18566895 833.73306274 C603.13239004 791.2408652 600.65270513 748.86445868 593 707 C592.80700317 705.94211273 592.80700317 705.94211273 592.61010742 704.862854 C591.56715551 699.15582475 590.50763093 693.45199259 589.4375 687.75 C589.28961029 686.96140594 589.14172058 686.17281189 588.98934937 685.36032104 C584.53281177 661.69716097 578.87268678 638.2431528 571.3984375 615.34375 C569.99801165 611.0483423 568.74411147 606.71771886 567.5 602.375 C542.68548108 517.11835818 496.36456548 434.9290748 441 366 C440.49114258 365.36497559 439.98228516 364.72995117 439.45800781 364.07568359 C429.29442392 351.4129084 418.89241128 338.99004014 407.84838867 327.08374023 C406.09591082 325.19203634 404.35924121 323.28968255 402.63183594 321.37475586 C395.31067599 313.27250749 387.6700528 305.51643203 379.93774414 297.80737305 C377.80172643 295.67675366 375.67115882 293.54078777 373.54101562 291.40429688 C372.15917493 290.0231165 370.77702433 288.64224611 369.39453125 287.26171875 C368.77036819 286.63553146 368.14620514 286.00934418 367.50312805 285.36418152 C363.71519215 281.59599598 359.81062845 278.01410614 355.7635498 274.5254364 C353.35678538 272.44363182 351.02481494 270.28419919 348.6875 268.125 C344.19851943 264.03119791 339.58756524 260.14530333 334.859375 256.33203125 C332.36224927 254.295441 329.90827746 252.21728235 327.46582031 250.11572266 C319.24283574 243.05627273 310.66529405 236.50413404 302 230 C301.26539551 229.44441406 300.53079102 228.88882813 299.77392578 228.31640625 C286.54615187 218.3227293 272.88819232 209.04909258 259 200 C257.7629834 199.19199951 257.7629834 199.19199951 256.50097656 198.36767578 C242.6565548 189.36272698 228.37552337 181.12288148 214 173 C213.06285156 172.46874512 212.12570312 171.93749023 211.16015625 171.39013672 C189.70916503 159.28309142 167.46920098 148.50540503 144.69677734 139.1171875 C141.82806886 137.9287745 138.97094002 136.71472487 136.11328125 135.5 C122.38489879 129.72449426 108.48562932 124.56290544 94.4375 119.625 C93.60358734 119.33017731 92.76967468 119.03535461 91.91049194 118.7315979 C80.39038703 114.67026363 68.80841858 111.12197464 57 108 C55.74695068 107.66564941 54.49390137 107.33129883 53.20288086 106.98681641 C50.73550193 106.32926082 48.26731869 105.67471587 45.79833984 105.02319336 C43.19123512 104.32089384 40.59588042 103.60256193 38.00244141 102.85375977 C27.04864316 99.70229984 16.04880263 97.17259141 4.875 94.9375 C4.02494385 94.76569214 3.1748877 94.59388428 2.29907227 94.41687012 C-11.42040685 91.64512204 -25.14434233 89.00416561 -39 87 C-40.70470459 86.7532251 -40.70470459 86.7532251 -42.44384766 86.50146484 C-57.65733235 84.34141319 -72.87999678 82.63009569 -88.1875 81.3125 C-88.88646393 81.25174286 -89.58542786 81.19098572 -90.30557251 81.12838745 C-111.13481556 79.33989538 -131.90853277 78.76312175 -152.8125 78.75 C-154.08257904 78.74866058 -155.35265808 78.74732117 -156.66122437 78.74594116 C-177.87542402 78.7507648 -198.82372376 79.63850464 -219.92297363 81.79107666 Z " fill="#3262FF" transform="translate(1212,227)"/>
<path d="M0 0 C1.18045898 0.42514893 1.18045898 0.42514893 2.38476562 0.85888672 C12.61363806 4.58524029 22.38315614 8.91262275 32.02001953 13.97167969 C33.97914742 14.98917003 35.95316263 15.97004452 37.93359375 16.9453125 C61.67816842 28.82335889 83.90784781 44.97642131 103.12109375 63.2734375 C105.71598731 65.73101648 108.36886157 68.08963766 111.0625 70.4375 C117.1396126 75.89510113 122.58273083 81.89842539 128 88 C128.46019531 88.51546387 128.92039062 89.03092773 129.39453125 89.56201172 C137.63875586 98.85458333 144.92780604 108.7961827 152 119 C152.46905762 119.67482422 152.93811523 120.34964844 153.42138672 121.04492188 C181.36373396 161.65540566 198.35551467 208.73031232 204.54174805 257.45166016 C204.85617635 259.88634371 205.19212204 262.3183162 205.54614258 264.74755859 C207.01242834 275.2344762 207.35894382 285.54331748 207.3125 296.125 C207.30976578 297.4255986 207.30976578 297.4255986 207.30697632 298.75247192 C207.19384265 330.96608558 202.78610784 362.25598516 193 393 C192.68047363 394.00643555 192.36094727 395.01287109 192.03173828 396.04980469 C178.29300565 438.72145977 156.30762248 476.21622288 127 510 C126.28457031 510.82886719 125.56914063 511.65773438 124.83203125 512.51171875 C114.76329236 523.94058747 103.99863521 534.61263802 92 544 C90.90644542 544.90334195 89.81543911 545.80977474 88.7265625 546.71875 C51.58835166 577.49936787 5.32024719 600.20693453 -42 610 C-42.86270508 610.18111328 -43.72541016 610.36222656 -44.61425781 610.54882812 C-67.19631435 615.22659805 -89.64249754 617.2308102 -112.6875 617.25 C-113.43335358 617.25067474 -114.17920715 617.25134949 -114.94766235 617.25204468 C-192.90586142 617.14172307 -269.05714505 586.73761967 -326.09765625 533.6796875 C-328.69511803 531.28149264 -331.33787094 528.95063594 -334 526.625 C-340.09615482 521.14333758 -345.56260991 515.12423719 -351 509 C-351.46019531 508.48453613 -351.92039062 507.96907227 -352.39453125 507.43798828 C-381.30389632 474.85246836 -401.22921448 436.08148541 -415 395 C-415.49064941 393.55693481 -415.49064941 393.55693481 -415.99121094 392.0847168 C-441.77004728 313.25712792 -431.83699606 226.00767525 -394.82104492 152.5637207 C-375.23389009 114.40696674 -346.32028241 77.03607631 -312 51 C-310.75267912 50.01457211 -309.50669309 49.02745332 -308.26171875 48.0390625 C-226.59197855 -16.26774326 -117.42427353 -36.17427704 0 0 Z " fill="#8FCDFF" transform="translate(1172,762)"/>
<path d="M0 0 C0.84949219 0.2690918 1.69898438 0.53818359 2.57421875 0.81542969 C24.16789874 7.79003071 44.08932146 18.04633183 62 32 C62.57363281 32.44666016 63.14726563 32.89332031 63.73828125 33.35351562 C82.37728874 48.08575222 97.81924475 65.63984682 110 86 C110.40605469 86.67514648 110.81210938 87.35029297 111.23046875 88.04589844 C121.33177313 105.02386003 128.346783 122.81576448 133 142 C133.24991699 142.98540771 133.24991699 142.98540771 133.50488281 143.99072266 C136.60542573 156.88356275 137.37873229 169.74493573 137.3125 182.9375 C137.30976578 184.07528397 137.30976578 184.07528397 137.30697632 185.23605347 C137.22732106 205.04686167 135.31915355 224.13860051 129 243 C128.74202637 243.77150391 128.48405273 244.54300781 128.21826172 245.33789062 C119.18073844 271.88257301 106.0717207 295.1391942 87.01953125 315.79296875 C85.26095093 317.71482152 83.59180225 319.67647489 81.9375 321.6875 C78.62888626 325.5505301 74.91448277 328.76337618 71 332 C70.4829248 332.43473633 69.96584961 332.86947266 69.43310547 333.31738281 C60.12140666 341.12343894 50.49379434 347.88126992 40 354 C39.41347656 354.3501416 38.82695313 354.7002832 38.22265625 355.06103516 C26.50598018 362.00535762 13.83195588 366.55068172 1 371 C0.3208252 371.23734863 -0.35834961 371.47469727 -1.05810547 371.71923828 C-4.99341201 373.06174313 -8.94479386 374.08704783 -13 375 C-13.77520996 375.17901855 -14.55041992 375.35803711 -15.34912109 375.54248047 C-64.96256671 386.58321907 -117.35587206 376.23140204 -160.21728516 349.62353516 C-196.02878512 326.69458355 -225.4051031 291.55348497 -239 251 C-239.24202148 250.29407715 -239.48404297 249.5881543 -239.73339844 248.86083984 C-243.42449001 238.0316608 -246.39063979 227.35149731 -248 216 C-248.10296387 215.28440918 -248.20592773 214.56881836 -248.31201172 213.83154297 C-251.42195744 191.27583868 -252.15129162 165.988686 -245.83203125 143.91796875 C-245.03670295 141.1287188 -244.39933899 138.32655025 -243.77050781 135.49609375 C-236.14961129 102.28263427 -216.89254375 73.62807955 -194 49 C-193.38898437 48.33484375 -192.77796875 47.6696875 -192.1484375 46.984375 C-186.04266438 40.59279974 -179.04331009 35.30497012 -172 30 C-171.16597656 29.3709375 -170.33195313 28.741875 -169.47265625 28.09375 C-149.56091615 13.66199307 -126.99975242 3.10795007 -103.125 -2.6875 C-101.88613037 -2.98857666 -100.64726074 -3.28965332 -99.37084961 -3.59985352 C-67.06754599 -11.30002254 -31.70824234 -10.2104692 0 0 Z " fill="#3262FF" transform="translate(1117,875)"/>
<path d="M0 0 C0.90876892 0.00082581 1.81753784 0.00165161 2.75384521 0.00250244 C17.27751173 0.03270114 31.45179323 0.87060761 45.84375 2.94091797 C48.25817541 3.27867123 50.66921003 3.56331265 53.09375 3.81640625 C62.06620645 4.76376908 70.67653192 6.57214981 79.40625 8.78466797 C81.44483277 9.2985924 83.48694563 9.79454317 85.53125 10.28515625 C94.66503752 12.49407591 103.67289545 15.05191636 112.66845703 17.76611328 C114.23169636 18.23245954 115.80086135 18.67886503 117.37109375 19.12109375 C123.28653342 20.79634626 128.86766133 23.00423179 134.50390625 25.45361328 C136.82879464 26.45397499 139.16438783 27.42728658 141.5 28.40234375 C170.37301998 40.56554742 198.04073355 55.48155152 222.71044922 74.90820312 C224.50389397 76.31555568 226.31381945 77.69883511 228.12890625 79.078125 C235.30913439 84.57187994 242.03518234 90.40965336 248.61328125 96.609375 C250.88867137 98.74005154 253.18800564 100.79540376 255.5625 102.8125 C259.03517422 105.8216605 262.30641192 109.01053232 265.5625 112.25 C266.28675171 112.96736328 266.28675171 112.96736328 267.02563477 113.69921875 C291.5171935 138.29408253 311.29123983 167.75546344 327.5 198.3125 C328.01723633 199.28703125 328.01723633 199.28703125 328.54492188 200.28125 C342.72992446 227.26870132 353.02974592 255.79087733 360.5 285.3125 C360.79390625 286.42625 361.0878125 287.54 361.390625 288.6875 C374.60838284 341.55853137 372.11437443 399.43190126 360.5 452.3125 C360.30599609 453.20855957 360.11199219 454.10461914 359.91210938 455.02783203 C347.54454727 511.08429804 320.17037843 563.41554862 283.5 607.3125 C282.68789062 608.31152344 281.87578125 609.31054688 281.0390625 610.33984375 C274.58768645 618.1714535 267.58992018 625.43604089 260.4375 632.625 C259.52782471 633.54385986 258.61814941 634.46271973 257.6809082 635.40942383 C252.33363509 640.73266425 246.81984812 645.66424545 240.91235352 650.359375 C238.68593183 652.16196314 236.58579546 654.03806612 234.5 656 C202.84818086 684.29056401 163.14283552 703.87025609 123.63110352 718.5222168 C122.08342004 719.09614868 120.53870491 719.67810516 118.99584961 720.26489258 C107.74697723 724.47651734 96.13045004 727.35997352 84.5 730.3125 C83.25452393 730.63033447 83.25452393 730.63033447 81.98388672 730.95458984 C71.05772945 733.67480487 59.97376406 735.13329866 48.8125 736.5 C48.12284149 736.5849472 47.43318298 736.66989441 46.72262573 736.75741577 C31.22241887 738.64233585 15.80016784 739.52427958 0.1875 739.5 C-0.90776001 739.49909363 -0.90776001 739.49909363 -2.02514648 739.49816895 C-45.31862483 739.40204458 -89.26132857 732.79745263 -129.5 716.3125 C-131.08349453 715.68979928 -132.66812571 715.06998088 -134.25390625 714.453125 C-186.56470188 693.96306879 -237.5243204 660.69814684 -274.37890625 617.76953125 C-276.01528547 615.87398331 -277.66902826 614.001522 -279.33984375 612.13671875 C-338.97243855 545.14823592 -371.66503498 453.76780888 -369.5 364.3125 C-369.48743164 363.50603027 -369.47486328 362.69956055 -369.46191406 361.86865234 C-367.7933413 265.5170884 -327.07182901 174.68828593 -259.17138672 106.79858398 C-257.6282647 105.25326934 -256.09335694 103.70009554 -254.55859375 102.14648438 C-248.19773053 95.74980069 -241.57909093 89.91997485 -234.5 84.3125 C-233.32594445 83.3362042 -232.15484954 82.35632385 -230.98828125 81.37109375 C-191.38014522 48.44860385 -142.48582067 24.24112014 -92.56103516 12.05957031 C-90.48355547 11.55254464 -88.40774581 11.03863642 -86.33349609 10.51855469 C-71.90551836 6.90883223 -57.61991479 4.16665761 -42.81884766 2.66088867 C-40.29870401 2.39634218 -37.78614994 2.10786324 -35.27099609 1.80200195 C-23.48852492 0.40700928 -11.85952444 -0.04602943 0 0 Z M-238.5 158.3125 C-241.71591935 161.81645835 -244.62883292 165.52235178 -247.5 169.3125 C-248.52083209 170.61820752 -249.54308814 171.92280243 -250.56640625 173.2265625 C-287.17150779 220.12098437 -309.77382646 275.20305725 -316.5 334.3125 C-316.60441406 335.19196289 -316.70882812 336.07142578 -316.81640625 336.97753906 C-319.30216678 358.36609247 -319.0353247 379.57908548 -317.1875 401 C-317.12873688 401.69903442 -317.06997375 402.39806885 -317.00942993 403.11828613 C-315.70618762 418.26420796 -312.78155816 432.91296062 -309.07543945 447.64208984 C-308.55787183 449.70595542 -308.05308871 451.77269158 -307.54882812 453.83984375 C-305.93715662 460.35035159 -304.17652486 466.66351552 -301.54272461 472.84912109 C-300.34610743 475.67606263 -299.27292687 478.53678711 -298.203125 481.4140625 C-293.57618619 493.75569633 -288.78570181 505.72557057 -282.5 517.3125 C-282.0757373 518.10881836 -281.65147461 518.90513672 -281.21435547 519.72558594 C-275.78121462 529.92020405 -270.2390066 539.91031209 -263.5 549.3125 C-262.75991699 550.35374023 -262.75991699 550.35374023 -262.00488281 551.41601562 C-254.05446053 562.56445183 -245.72210554 573.19074082 -236.5 583.3125 C-235.88447266 583.98974121 -235.26894531 584.66698242 -234.63476562 585.36474609 C-227.26859397 593.43290124 -219.81234463 601.2057626 -211.5 608.3125 C-210.46888149 609.22784972 -209.43901243 610.14460815 -208.41015625 611.0625 C-199.25370897 619.16192017 -189.55689709 626.37194801 -179.5 633.3125 C-178.81599121 633.7854248 -178.13198242 634.25834961 -177.42724609 634.74560547 C-137.95702008 661.76568486 -90.50287997 680.66836262 -42.78808594 686.05224609 C-40.47164015 686.31572574 -38.16278436 686.6201532 -35.8515625 686.92578125 C-4.52004039 690.76281019 28.54246065 689.11075666 59.5 683.3125 C60.33015625 683.16506348 61.1603125 683.01762695 62.015625 682.86572266 C114.36918076 673.41190879 163.98902597 648.45096126 204.5 614.3125 C205.55179805 613.44756963 206.60389512 612.5830028 207.65625 611.71875 C221.50618472 600.22547957 234.47671855 587.55515016 245.5 573.3125 C246.39889543 572.22240773 247.3014893 571.13535855 248.20703125 570.05078125 C270.69049672 542.93968737 286.95913613 512.06145476 299.5 479.3125 C299.77054199 478.61753418 300.04108398 477.92256836 300.31982422 477.20654297 C308.63068514 455.71002954 313.53902525 433.12011254 316.5 410.3125 C316.61714355 409.46107422 316.73428711 408.60964844 316.85498047 407.73242188 C320.88979369 377.44434405 319.32610388 346.3821201 314.5 316.3125 C314.27074145 314.77345118 314.041559 313.23439103 313.8125 311.6953125 C306.67915181 268.80605652 288.73762746 225.68041422 263.5 190.3125 C263.00806152 189.61979004 262.51612305 188.92708008 262.00927734 188.21337891 C254.05729807 177.0637038 245.72338461 166.43566303 236.5 156.3125 C235.88447266 155.63525879 235.26894531 154.95801758 234.63476562 154.26025391 C227.27201217 146.1958427 219.83018521 138.39315743 211.5 131.3125 C210.530625 130.466875 209.56125 129.62125 208.5625 128.75 C185.53620418 108.78742702 160.05730468 92.73168416 132.32470703 80.14697266 C130.7382961 79.42147727 129.16298339 78.67180882 127.58984375 77.91796875 C119.46346846 74.05702121 111.02985596 71.13244492 102.5 68.3125 C101.05367187 67.83393555 101.05367187 67.83393555 99.578125 67.34570312 C75.84191727 59.57776077 52.34760814 54.74586452 27.5 52.3125 C26.79117676 52.24047363 26.08235352 52.16844727 25.35205078 52.09423828 C21.06893128 51.67471735 16.80088372 51.45137394 12.5 51.3125 C11.66758789 51.28526855 10.83517578 51.25803711 9.97753906 51.22998047 C-86.47792041 48.53843641 -172.57497917 89.37439494 -238.5 158.3125 Z " fill="#3262FF" transform="translate(1060.5,690.6875)"/>
<path d="M0 0 C0.7505365 0.0678772 1.501073 0.13575439 2.27435303 0.20568848 C23.27340395 2.12533656 44.19556413 4.52841642 65 8 C66.26070312 8.20947266 67.52140625 8.41894531 68.8203125 8.63476562 C79.19808135 10.39424004 89.47908556 12.52508631 99.75585938 14.796875 C102.36470543 15.37272767 104.97520062 15.94060175 107.5859375 16.5078125 C122.49077012 19.77036123 137.36961943 23.29528223 151.875 28.0625 C153.33052834 28.53317357 154.78626268 29.00321053 156.2421875 29.47265625 C157.36596802 29.83677612 157.36596802 29.83677612 158.51245117 30.20825195 C161.36927647 31.11753495 164.23689466 31.98787885 167.10546875 32.859375 C174.5987696 35.15952002 182.02438149 37.64348151 189.4375 40.1875 C190.4825621 40.54590973 190.4825621 40.54590973 191.54873657 40.91156006 C203.03290291 44.86337236 214.32566465 49.14781742 225.49365234 53.92919922 C227.97556675 54.98956125 230.46509045 56.02985708 232.95703125 57.06640625 C262.35508462 69.37549864 291.49239083 83.04897284 318.73730469 99.62646484 C321.28923149 101.17557363 323.85154479 102.70675907 326.4140625 104.23828125 C339.53868568 112.11527497 352.36676777 120.35812274 365 129 C365.83096191 129.56686523 366.66192383 130.13373047 367.51806641 130.71777344 C395.93194842 150.16322929 422.5603007 171.8220244 448 195 C448.90556641 195.82072998 449.81113281 196.64145996 450.74414062 197.48706055 C459.1473998 205.14442712 467.24204359 213.08732283 475.26806641 221.13769531 C477.38981009 223.26484784 479.51691491 225.38653561 481.64453125 227.5078125 C483.0211544 228.88509583 484.39746766 230.26268899 485.7734375 231.640625 C486.39648773 232.261651 487.01953796 232.882677 487.66146851 233.52252197 C491.41360068 237.29442648 494.97921287 241.18300341 498.45196533 245.21385193 C500.69838124 247.80580386 503.03716381 250.30266085 505.375 252.8125 C509.59398254 257.38432457 513.61147468 262.07254844 517.51171875 266.921875 C519.37060486 269.22140759 521.24614776 271.49913548 523.14453125 273.765625 C532.16363893 284.55661906 540.66396269 295.67531544 549 307 C549.5554248 307.74862305 550.11084961 308.49724609 550.68310547 309.26855469 C559.99675126 321.83036592 568.60320502 334.81050355 577 348 C577.56750977 348.89122559 578.13501953 349.78245117 578.71972656 350.70068359 C611.44249822 402.32119214 637.58395131 458.06815549 657 516 C657.25201172 516.74668945 657.50402344 517.49337891 657.76367188 518.26269531 C661.50255811 529.42594136 664.58007566 540.72256531 667.46484375 552.13500977 C668.86750907 557.68210238 670.33737426 563.18892947 671.9609375 568.67578125 C674.40543955 577.15291065 676.21272976 585.74064546 678 594.375 C678.26145813 595.6295549 678.26145813 595.6295549 678.52819824 596.90945435 C681.36699179 610.55421397 684.01738913 624.20094035 686 638 C686.1645166 639.1432373 686.3290332 640.28647461 686.49853516 641.46435547 C688.61440049 656.44198515 690.33357744 671.43591826 691.6875 686.5 C691.80681885 687.8082373 691.9261377 689.11647461 692.04907227 690.46435547 C693.86920004 711.71365624 694.23824342 732.9941864 694.25 754.3125 C694.25100708 755.59625519 694.25201416 756.88001038 694.25305176 758.20266724 C694.24092151 781.25709029 693.25250116 804.06060229 691 827 C690.92031982 827.82411377 690.84063965 828.64822754 690.75854492 829.49731445 C690.20234452 835.23067032 689.61528181 840.96018912 689 846.6875 C688.92245483 847.41540741 688.84490967 848.14331482 688.76501465 848.89328003 C687.82090233 857.60460087 686.46834112 866.14287666 684.67382812 874.71459961 C683.87410298 878.61383922 683.29698594 882.49529417 682.75 886.4375 C678.98574366 911.59212301 673.46713385 938.17012601 664.98046875 962.140625 C663.78615405 965.62364635 662.76795051 969.15015304 661.75 972.6875 C659.59835172 980.09369085 657.32603511 987.45928057 655 994.8125 C654.51998535 996.35006958 654.51998535 996.35006958 654.03027344 997.91870117 C652.04152247 1004.16239587 649.74045799 1010.18042756 647.16943359 1016.20678711 C645.56248356 1020.04501578 644.19230537 1023.95106876 642.8125 1027.875 C639.16390714 1038.01055213 634.68935473 1047.71756271 630.15625 1057.48144531 C628.54789772 1060.98477346 627.02192801 1064.52102943 625.5 1068.0625 C617.90877199 1085.53643617 609.342921 1102.40134788 600 1119 C599.13133301 1120.54977539 599.13133301 1120.54977539 598.24511719 1122.13085938 C589.88143326 1137.00462972 581.04298907 1151.46505349 571.56542969 1165.65478516 C570.2452951 1167.63251642 568.93518346 1169.61602475 567.6328125 1171.60546875 C562.62540378 1179.21713221 557.34931083 1186.62701283 552 1194 C551.47100098 1194.7317041 550.94200195 1195.4634082 550.39697266 1196.21728516 C542.70807064 1206.83423481 534.7807016 1217.18479081 526.41943359 1227.28076172 C524.42779971 1229.69305718 522.46681581 1232.12995367 520.5 1234.5625 C511.50445013 1245.53147946 502.08465427 1256.10550062 492.41015625 1266.4765625 C491.07335825 1267.92074871 489.75485533 1269.38180689 488.4375 1270.84375 C482.73176209 1277.17572744 476.82884472 1283.27590029 470.8125 1289.3125 C469.68980713 1290.4420813 469.68980713 1290.4420813 468.54443359 1291.59448242 C464.3954143 1295.73205551 460.14759093 1299.68177114 455.70825195 1303.50561523 C453.76504871 1305.20553621 451.96423713 1307.0025604 450.1875 1308.875 C446.32104546 1312.8018679 442.13881026 1316.2107621 437.84375 1319.65625 C435.03029056 1321.97503525 432.35766512 1324.39331712 429.6875 1326.875 C424.54905744 1331.59799402 419.16741158 1335.8940497 413.65234375 1340.16015625 C410.6138311 1342.51064254 407.62199103 1344.9132578 404.63891602 1347.33349609 C391.58741042 1357.90240679 378.07073265 1367.83241985 364 1377 C362.86722601 1377.75853307 361.73578255 1378.51905576 360.60546875 1379.28125 C335.63371265 1396.11143694 309.84590561 1411.35103657 283 1425 C281.61572981 1425.71193711 280.23160088 1426.42414898 278.84765625 1427.13671875 C248.54732796 1442.62484067 216.88246434 1455.60402547 184.73046875 1466.703125 C181.15676337 1467.94550216 177.61142329 1469.25138125 174.0625 1470.5625 C168.17001207 1472.67273881 162.22378941 1474.41857906 156.18188477 1476.03735352 C151.83534568 1477.20205223 147.5178569 1478.43908772 143.20783997 1479.73338318 C133.54346635 1482.62555115 123.81879562 1485.12808869 114 1487.4375 C113.18363068 1487.63009399 112.36726135 1487.82268799 111.52615356 1488.02111816 C76.86433979 1496.16048209 41.70801336 1501.55788853 6.25 1504.75 C4.3464978 1504.92341919 4.3464978 1504.92341919 2.40454102 1505.1003418 C-61.5626977 1510.47549993 -131.01736979 1510.41451835 -193.81103516 1495.46582031 C-196.59129186 1494.87417077 -199.38314248 1494.46827908 -202.1953125 1494.0546875 C-209.15248743 1493.01748008 -216.00306661 1491.61879547 -222.875 1490.125 C-224.10371826 1489.85961426 -225.33243652 1489.59422852 -226.59838867 1489.32080078 C-235.14561434 1487.45411975 -243.57750063 1485.3675686 -252 1483 C-254.35408153 1482.39550169 -256.70825192 1481.79134935 -259.0625 1481.1875 C-269.15579344 1478.48282897 -279.06892852 1475.24271433 -289 1472 C-290.36873866 1471.55624202 -291.73755796 1471.11273269 -293.10644531 1470.66943359 C-312.35346005 1464.42829121 -331.35667894 1457.90019903 -350 1450 C-351.42578369 1449.40155273 -351.42578369 1449.40155273 -352.88037109 1448.79101562 C-415.01582799 1422.63536829 -473.59604865 1388.33787171 -526.33496094 1346.31787109 C-528.02915613 1344.97692305 -529.73511545 1343.65249607 -531.4453125 1342.33203125 C-542.86532873 1333.49562782 -553.7460001 1324.05419628 -564.42602539 1314.33862305 C-566.08949249 1312.82725519 -567.75833538 1311.32177368 -569.43359375 1309.82348633 C-578.35389233 1301.77304633 -586.84471875 1293.30751218 -595.32885742 1284.80151367 C-597.82161995 1282.30336032 -600.31972475 1279.81063802 -602.81835938 1277.31835938 C-604.42740428 1275.70865409 -606.03613918 1274.09863885 -607.64453125 1272.48828125 C-608.38008743 1271.7547493 -609.11564362 1271.02121735 -609.87348938 1270.26545715 C-614.44922818 1265.66915766 -618.77133574 1260.91567747 -623 1256 C-624.45445517 1254.39231627 -625.91220895 1252.78760285 -627.375 1251.1875 C-631.20036325 1246.94423992 -634.8509409 1242.59140503 -638.44140625 1238.1484375 C-640.32262409 1235.82188546 -642.23129752 1233.52033191 -644.15234375 1231.2265625 C-699.02624358 1165.5521354 -743.17609573 1088.55799946 -770.81640625 1007.4453125 C-771.9040234 1004.27937743 -773.05630898 1001.14908775 -774.23901367 998.01806641 C-778.55581817 986.57029421 -782.24055652 975.05938248 -785.39550781 963.23974609 C-785.98453745 961.05729137 -786.59333809 958.88155799 -787.2109375 956.70703125 C-796.42635689 924.246803 -803.0379276 891.35846994 -808 858 C-808.15065918 856.9996875 -808.30131836 855.999375 -808.45654297 854.96875 C-810.79956666 839.07261753 -811.90451494 823.0818367 -812.99853516 807.06103516 C-813.0581543 806.19350616 -813.11777344 805.32597717 -813.17919922 804.43215942 C-813.29036027 802.80314229 -813.39940592 801.17397876 -813.50585938 799.54464722 C-813.74014783 796.08987489 -814.04125324 792.70903303 -814.52783203 789.27709961 C-815.28949215 783.43106432 -815.18206337 777.54605024 -815.203125 771.66015625 C-815.21013931 770.36194443 -815.21715363 769.0637326 -815.22438049 767.72618103 C-815.24399224 763.50494977 -815.24882093 759.28377212 -815.25 755.0625 C-815.25044186 754.34267944 -815.25088371 753.62285889 -815.25133896 752.88122559 C-815.25920254 728.4781004 -814.61021986 704.28150506 -812 680 C-811.91278687 679.18174744 -811.82557373 678.36349487 -811.73571777 677.52044678 C-809.68226464 658.43402867 -807.04683372 639.4423125 -803.9375 620.5 C-803.81966156 619.77444916 -803.70182312 619.04889832 -803.58041382 618.30136108 C-802.11217068 609.34293516 -800.24759292 600.57115864 -797.97143555 591.78369141 C-797.09306436 588.36248088 -796.27567626 584.93614655 -795.4921875 581.4921875 C-793.94143373 574.7010998 -792.30572817 567.93259149 -790.63037109 561.17138672 C-790.29449573 559.81133489 -789.96114546 558.45065689 -789.63037109 557.08935547 C-787.51400044 548.3831383 -785.08477797 539.89001623 -782.15014648 531.42236328 C-780.6175037 526.86184819 -779.34353936 522.25440389 -778.08984375 517.609375 C-776.89632818 513.65665677 -775.50563481 509.8089778 -774.07739258 505.93603516 C-773.0241396 503.06578357 -772.00344133 500.18606792 -770.9921875 497.30078125 C-760.96601609 468.85030713 -748.99288836 441.13874304 -735.18457031 414.31152344 C-733.76403069 411.53953887 -732.36385195 408.7575079 -730.9609375 405.9765625 C-709.95541752 364.61417784 -684.57115731 325.53286516 -656 289 C-655.1194081 287.86097352 -654.23921007 286.72164244 -653.359375 285.58203125 C-644.76335273 274.49118642 -635.67962314 263.84988568 -626.23046875 253.4765625 C-624.34465912 251.3826863 -622.48721091 249.26948244 -620.63671875 247.14453125 C-610.57751088 235.63376858 -599.85583896 224.75474863 -589.0625 213.9375 C-588.52465881 213.39707062 -587.98681763 212.85664124 -587.43267822 212.29983521 C-582.01703441 206.86363768 -576.5870695 201.49465905 -570.75024414 196.50512695 C-567.98560806 194.12767104 -565.34649701 191.61906869 -562.6875 189.125 C-557.86763923 184.64132731 -552.92496022 180.3837577 -547.7890625 176.26171875 C-545.3131672 174.25395491 -542.88601604 172.19948333 -540.47021484 170.12011719 C-532.24793037 163.05806324 -523.67247521 156.49685427 -515 150 C-514.26007813 149.44441406 -513.52015625 148.88882813 -512.7578125 148.31640625 C-494.13245455 134.36349969 -475.24080591 120.98682428 -455.12890625 109.25488281 C-452.17633179 107.51448915 -449.27812279 105.69670955 -446.375 103.875 C-439.24215225 99.47234239 -431.9245017 95.42966008 -424.57080078 91.41113281 C-421.87213586 89.92981437 -419.18409888 88.43025244 -416.49609375 86.9296875 C-402.42055509 79.12511112 -388.06379722 72.14028673 -373.39160156 65.53027344 C-370.22048582 64.09948209 -367.05901224 62.64919752 -363.8984375 61.1953125 C-346.28924883 53.18274213 -328.19143134 46.54788716 -310 40 C-308.91058105 39.60731934 -307.82116211 39.21463867 -306.69873047 38.81005859 C-277.63637988 28.3810319 -247.80087029 20.46955613 -217.625 14 C-216.74889069 13.81063873 -215.87278137 13.62127747 -214.97012329 13.42617798 C-205.42858973 11.37445134 -195.96268396 9.61588633 -186.27148438 8.43188477 C-182.59123352 7.94603672 -178.99990575 7.23021246 -175.37011719 6.46435547 C-170.98633923 5.60548179 -166.55816233 5.09579867 -162.125 4.5625 C-161.0939917 4.43689697 -160.0629834 4.31129395 -159.00073242 4.18188477 C-155.66797653 3.78059731 -152.33425196 3.38865219 -149 3 C-147.8867334 2.86948242 -146.7734668 2.73896484 -145.62646484 2.60449219 C-137.42522847 1.65406853 -129.21670307 0.80472271 -121 0 C-119.96633301 -0.10731445 -118.93266602 -0.21462891 -117.86767578 -0.32519531 C-79.08689855 -4.23492321 -38.80097601 -3.52725848 0 0 Z M-138 12 C-139.14130371 12.11746582 -140.28260742 12.23493164 -141.45849609 12.35595703 C-147.2812431 12.97052566 -153.07538547 13.70856272 -158.86914062 14.55224609 C-161.80733973 14.97244706 -164.74834277 15.36488852 -167.69126892 15.75038147 C-188.7498586 18.52454716 -209.33075137 22.64732854 -229.99560547 27.52935791 C-233.04600101 28.24560639 -236.10135525 28.93995048 -239.15625 29.63671875 C-250.14655854 32.17174785 -260.91910285 35.056174 -271.6328125 38.58203125 C-275.03050061 39.6999466 -278.44367683 40.71821038 -281.88623047 41.68774414 C-303.77905348 47.8771833 -325.0307207 55.9345995 -345.98779297 64.73779297 C-348.76885791 65.90314438 -351.55637662 67.05078717 -354.34765625 68.19140625 C-363.81635214 72.08142083 -373.00128587 76.34520295 -382.10107422 81.03076172 C-384.51466313 82.26269126 -386.94896562 83.45153547 -389.38256836 84.64331055 C-423.36712034 101.37122769 -456.35721881 120.43619874 -487.08007812 142.61816406 C-488.94706801 143.96190297 -490.82301731 145.29188213 -492.703125 146.6171875 C-500.05503387 151.80741869 -507.25212296 157.16669762 -514.34375 162.70703125 C-516.048816 164.03810872 -517.75863179 165.36292183 -519.46875 166.6875 C-526.91640151 172.47553072 -534.18616353 178.43958324 -541.34375 184.58203125 C-543.04685578 186.04011474 -544.75709274 187.48946852 -546.46875 188.9375 C-561.92618404 202.04210968 -576.26068125 216.13856528 -590.52734375 230.51147461 C-593.88719705 233.89289095 -597.25533383 237.26521878 -600.6484375 240.61328125 C-605.99154087 245.90280049 -611.12275393 251.27621024 -616 257 C-616.94018439 258.0778899 -617.88171784 259.15460381 -618.82421875 260.23046875 C-643.37895462 288.30114273 -665.59932919 317.78419369 -686 349 C-686.54011719 349.82612793 -687.08023438 350.65225586 -687.63671875 351.50341797 C-701.35934499 372.60327869 -713.61311976 394.56394927 -725 417 C-725.38768555 417.76022461 -725.77537109 418.52044922 -726.17480469 419.30371094 C-736.76449274 440.09715174 -746.70484332 461.37749642 -754.6484375 483.33203125 C-755.67233478 486.11075827 -756.7423004 488.84506543 -757.859375 491.5859375 C-760.40755205 497.92163771 -762.64882056 504.35781852 -764.875 510.8125 C-765.09376801 511.44628571 -765.31253601 512.08007141 -765.53793335 512.73306274 C-769.17362268 523.29493158 -772.45101692 533.92043015 -775.37060547 544.703125 C-775.95622264 546.84024149 -776.56731518 548.96760047 -777.19140625 551.09375 C-781.59130948 566.20590729 -785.06301389 581.57259174 -788.52935791 596.92053223 C-788.96572174 598.84854618 -789.40720393 600.77539977 -789.84912109 602.70214844 C-793.57822205 619.16752787 -796.05699554 635.70128235 -798.1875 652.4375 C-798.36868378 653.83467255 -798.36868378 653.83467255 -798.55352783 655.2600708 C-802.70134017 687.60644921 -804.57059025 719.95869298 -804.44622421 752.55577087 C-804.43732144 755.11380705 -804.4338617 757.67180857 -804.43130493 760.2298584 C-804.3832403 791.60083251 -803.16086145 822.68164184 -798.00505066 853.68170166 C-797.1877664 858.60726962 -796.58910607 863.49074963 -796.30859375 868.48046875 C-795.95678728 871.35281269 -795.23297181 874.07626534 -794.50610352 876.87329102 C-793.68132038 880.33913079 -793.24319459 883.84965734 -792.75 887.375 C-791.07309406 898.55956227 -788.47942085 909.50107665 -785.83691406 920.49072266 C-784.98415266 924.06644974 -784.15799055 927.64756734 -783.3359375 931.23046875 C-779.65449683 947.10509483 -775.21439457 962.56380663 -770 978 C-769.5149795 979.4568165 -769.03057786 980.91383923 -768.546875 982.37109375 C-758.91644801 1011.23031605 -748.50144398 1039.49151256 -735.42138672 1067.00146484 C-734.07881625 1069.83373048 -732.75679956 1072.67456305 -731.44140625 1075.51953125 C-725.49165922 1088.3171673 -718.88289936 1100.68312074 -712 1113 C-710.92313415 1114.94398663 -709.84631168 1116.8879973 -708.76953125 1118.83203125 C-699.56650576 1135.36252545 -689.64047515 1151.35584651 -679 1167 C-678.61054199 1167.57717773 -678.22108398 1168.15435547 -677.81982422 1168.74902344 C-663.49174225 1189.97211349 -648.1934673 1210.6528408 -631.4921875 1230.07421875 C-629.20631011 1232.75779581 -627.00529732 1235.49038526 -624.8125 1238.25 C-619.53098325 1244.74304748 -613.73866064 1250.74741287 -607.97265625 1256.80859375 C-605.11733215 1259.8102405 -602.30148484 1262.84196314 -599.51586914 1265.90820312 C-594.08079175 1271.88421239 -588.4521872 1277.6536233 -582.75 1283.375 C-581.63262451 1284.49926392 -581.63262451 1284.49926392 -580.49267578 1285.64624023 C-576.41985763 1289.70773745 -572.2554245 1293.59331633 -567.89794922 1297.34716797 C-564.91819336 1299.94209299 -562.06122311 1302.66399529 -559.1875 1305.375 C-554.11864488 1310.1224122 -548.92315995 1314.62158629 -543.5 1318.96484375 C-541.15940954 1320.87023067 -538.9193189 1322.84420891 -536.6875 1324.875 C-531.3739747 1329.63756222 -525.76878045 1334.00584175 -520.12255859 1338.36181641 C-518.64171119 1339.50472946 -517.16303679 1340.65046117 -515.68603516 1341.79833984 C-490.69639929 1361.2048135 -464.61589295 1378.96593046 -437.18115234 1394.74169922 C-434.88134621 1396.06845105 -432.59103168 1397.41073433 -430.30078125 1398.75390625 C-367.47898037 1435.38143618 -300.0541618 1460.92081238 -229.4375 1477.6875 C-228.62716309 1477.879953 -227.81682617 1478.07240601 -226.98193359 1478.27069092 C-208.78378236 1482.98110477 -208.78378236 1482.98110477 -190.2578125 1485.69140625 C-188 1486 -188 1486 -184.45703125 1486.93359375 C-179.22146251 1488.2800386 -173.92384072 1488.87189135 -168.5625 1489.5 C-167.50063477 1489.62818115 -166.43876953 1489.7563623 -165.34472656 1489.88842773 C-163.21137352 1490.14518441 -161.07775013 1490.39970585 -158.94384766 1490.65185547 C-156.41365278 1490.9510807 -153.8843945 1491.25668451 -151.35546875 1491.56640625 C-133.61757562 1493.72430214 -115.91663055 1495.35305411 -98.0625 1496.125 C-97.11834229 1496.16669312 -96.17418457 1496.20838623 -95.20141602 1496.25134277 C-43.57123632 1498.49096866 8.77069403 1496.84026841 59.68310547 1487.38525391 C61.99664177 1487.00055841 64.29515521 1486.7398746 66.62890625 1486.51171875 C70.09174193 1486.15732947 73.33877647 1485.45889856 76.70703125 1484.55810547 C79.5067467 1483.87665854 82.31825624 1483.3777591 85.15625 1482.87890625 C106.3731838 1479.10905813 126.95973937 1473.66260505 147.65081787 1467.67889404 C149.90386636 1467.02778182 152.15806136 1466.38080205 154.41259766 1465.73486328 C168.55447601 1461.67345079 182.48579773 1457.38313626 196.09521484 1451.76904297 C199.09649806 1450.55729699 202.14434601 1449.47654983 205.1875 1448.375 C230.14474288 1439.09820395 254.22148256 1427.93591767 278 1416 C279.08812988 1415.45456543 280.17625977 1414.90913086 281.29736328 1414.34716797 C325.26067409 1392.1719811 367.36460528 1364.74470119 405.328125 1333.37207031 C407.54838057 1331.54995637 409.80459232 1329.77513136 412.0625 1328 C422.38601961 1319.76555687 432.26301592 1310.91455405 442 1302 C442.47679199 1301.5683252 442.95358398 1301.13665039 443.44482422 1300.69189453 C452.90333604 1292.11462902 461.96423883 1283.14243858 471 1274.125 C471.59021942 1273.53736877 472.18043884 1272.94973755 472.7885437 1272.34429932 C478.55195361 1266.60082022 484.28102541 1260.87754948 489.56347656 1254.68164062 C491.75866057 1252.11188749 494.07146675 1249.66051242 496.375 1247.1875 C500.6687538 1242.53961458 504.7353184 1237.75583652 508.703125 1232.82421875 C510.72532938 1230.33773275 512.79161879 1227.89714201 514.88208008 1225.46801758 C521.94237366 1217.24591949 528.50640658 1208.67342809 535 1200 C535.8971875 1198.80238037 535.8971875 1198.80238037 536.8125 1197.58056641 C543.8077073 1188.21966002 550.64778086 1178.81275643 557 1169 C557.94703746 1167.56712685 558.89503588 1166.13488858 559.84375 1164.703125 C572.40697164 1145.6637552 584.24972059 1126.1230203 595 1106 C595.51353027 1105.0399707 596.02706055 1104.07994141 596.55615234 1103.09082031 C610.59413449 1076.7179183 623.12756129 1049.83363717 634 1022 C634.29277832 1021.25218262 634.58555664 1020.50436523 634.88720703 1019.73388672 C636.35016805 1015.97159088 637.75953244 1012.1915755 639.13232422 1008.39550781 C639.80185055 1006.54705752 640.4763075 1004.70039266 641.15283203 1002.85449219 C645.97945255 989.67501985 650.66836531 976.64304405 654 963 C654.61449797 960.80952665 655.23985916 958.62207716 655.875 956.4375 C656.38850768 954.64222903 656.90194245 952.84693683 657.4140625 951.05126953 C657.82900434 949.5986273 658.24586247 948.14653181 658.6640625 946.69482422 C668.54167762 912.2385006 674.82170145 876.58948982 679 841 C679.1247168 839.95473145 679.24943359 838.90946289 679.37792969 837.83251953 C685.90765984 781.84612951 686.10821709 724.61861095 679.4296875 668.63867188 C679.04580793 665.38790989 678.68215367 662.13586731 678.32618713 658.88198853 C676.51349651 642.37725778 674.19817382 626.11771751 670.63232422 609.88378906 C670.01055838 607.04815272 669.41073607 604.20868775 668.81640625 601.3671875 C664.32210578 580.04892562 659.54333319 558.79240824 652.67773438 538.1015625 C651.57301973 534.675992 650.6084383 531.21188289 649.625 527.75 C643.76264117 507.41411249 636.18140145 487.50404793 628 468 C627.33859009 466.41312378 627.33859009 466.41312378 626.66381836 464.79418945 C625.30174286 461.52733071 623.93262343 458.26349061 622.5625 455 C622.11068359 453.91460938 621.65886719 452.82921875 621.19335938 451.7109375 C618.08193712 444.31413793 614.64952482 437.14470502 611 430 C610.39390013 428.77242542 609.7904692 427.54352396 609.19140625 426.3125 C584.38376255 375.86434206 554.10166372 328.17151793 518.40429688 284.72021484 C516.57584246 282.48042176 514.78780165 280.20981093 513 277.9375 C504.80103812 267.67157294 496.01106265 257.89190379 487.046875 248.29296875 C484.58919986 245.65905602 482.19502114 242.9728847 479.80078125 240.28125 C474.85619116 234.77756708 469.67948482 229.53171009 464.4375 224.3125 C463.54353516 223.41466797 462.64957031 222.51683594 461.72851562 221.59179688 C457.18746705 217.05739212 452.60078662 212.65096301 447.70654297 208.49829102 C445.94238114 206.94941245 444.31311481 205.31780174 442.6875 203.625 C439.00937574 199.88015239 434.9655713 196.66491855 430.87890625 193.37890625 C428.05594403 191.04622784 425.36963388 188.61752795 422.6875 186.125 C417.55036786 181.40321046 412.17048196 177.10802983 406.65625 172.84375 C404.21526551 170.95563807 401.80069579 169.04053853 399.40625 167.09375 C379.62793507 151.01440247 358.51085482 136.64962347 337 123 C336.21028809 122.49742676 335.42057617 121.99485352 334.60693359 121.47705078 C320.36718145 112.44456123 305.79176911 104.09269114 291 96 C290.21141602 95.56703613 289.42283203 95.13407227 288.61035156 94.68798828 C262.95333109 80.65590108 236.0720677 68.82931015 208.75 58.4453125 C205.46208412 57.19253732 202.23021672 55.83316429 199 54.4375 C191.88241939 51.4349245 184.54599888 49.10813138 177.20458984 46.72314453 C175.17889404 46.05868042 173.16059891 45.37663343 171.14453125 44.68359375 C156.87779327 39.80568441 142.30901771 36.03157935 127.72265625 32.2421875 C124.74189224 31.46533459 121.7720605 30.66062555 118.80859375 29.8203125 C69.29685997 15.94241272 15.4221611 8.93710127 -35.9296875 8.796875 C-37.51960779 8.78993781 -39.10952783 8.78294272 -40.69944763 8.77589417 C-45.757968 8.75672649 -50.8164476 8.75197635 -55.875 8.75 C-56.73489407 8.74926357 -57.59478813 8.74852715 -58.48073959 8.7477684 C-85.09395809 8.72918486 -111.51300849 9.16174987 -138 12 Z " fill="#F9FAFF" transform="translate(1121,308)"/>
<path d="M0 0 C1.05848145 0.32009033 2.11696289 0.64018066 3.20751953 0.9699707 C10.48185465 3.23384616 17.44461851 5.98629366 24.4375 9 C26.07724237 9.68051608 27.71782315 10.3590167 29.359375 11.03515625 C57.86899549 22.93708876 84.60698256 37.57630466 109.4375 56 C110.02176758 56.4326416 110.60603516 56.8652832 111.20800781 57.31103516 C127.96798206 69.79707207 143.29640273 83.79807659 158.125 98.5 C159.44371094 99.7991333 159.44371094 99.7991333 160.7890625 101.12451172 C166.77505876 107.10263166 172.16095649 113.39350939 177.4375 120 C178.30110681 121.02736636 179.16950327 122.0507699 180.046875 123.06640625 C206.58518912 154.01163019 228.25412969 191.74234652 241.20703125 230.390625 C242.20686867 233.32348143 243.29044705 236.15061835 244.5 239 C249.31591618 250.90162891 252.14592586 263.56107539 255.1875 276 C255.49341064 277.24048096 255.79932129 278.48096191 256.11450195 279.7590332 C257.48710344 285.46478695 258.686834 291.02298662 259.20263672 296.86987305 C259.46301793 299.23143863 259.91053371 301.50702969 260.3984375 303.83203125 C269.14329373 346.12046864 266.02691622 392.81858 258.4375 435 C258.30730469 435.74846191 258.17710937 436.49692383 258.04296875 437.26806641 C256.26698916 447.4238398 253.47769591 457.1686539 250.4375 467 C250.09589844 468.12277344 249.75429687 469.24554687 249.40234375 470.40234375 C248.76216303 472.49913 248.11637898 474.59421412 247.46484375 476.6875 C246.71624267 479.10124038 245.98015188 481.51707136 245.25390625 483.9375 C244.8360439 485.31253234 244.41807654 486.68753277 244 488.0625 C243.63003906 489.29097656 243.26007812 490.51945312 242.87890625 491.78515625 C224.86333049 547.08703912 187.0668118 604.4539958 142.625 642.375 C140.4848092 644.21409932 138.37080621 646.06205209 136.3046875 647.984375 C128.47535337 655.2563667 120.00280858 661.63112993 111.4375 668 C110.83389648 668.45020508 110.23029297 668.90041016 109.60839844 669.36425781 C81.20986379 690.43204565 50.12253274 706.02316966 17.30273438 718.87060547 C14.58022867 719.94374039 11.87020772 721.04432338 9.16015625 722.1484375 C2.08036956 724.98119862 -5.21651404 726.98328657 -12.5625 729 C-13.42617187 729.24008789 -14.28984375 729.48017578 -15.1796875 729.72753906 C-27.40027937 733.08470022 -39.68189468 735.70998731 -52.1875 737.75 C-53.98791748 738.04777344 -53.98791748 738.04777344 -55.82470703 738.3515625 C-74.39858423 741.25225625 -92.90343286 742.35590502 -111.6875 742.25 C-112.65819427 742.24723053 -113.62888855 742.24446106 -114.6289978 742.24160767 C-134.90654099 742.17409963 -155.29739566 741.94881568 -175.20703125 737.7109375 C-178.3641498 737.0420253 -181.49087309 736.55885717 -184.6875 736.125 C-259.51257994 724.69084964 -330.65553266 684.5615126 -383.65991211 631.16333008 C-385.38498477 629.42745269 -387.12061991 627.7026491 -388.85742188 625.97851562 C-395.5403089 619.30399111 -401.70401666 612.42182814 -407.5625 605 C-408.67015227 603.6591742 -409.78175733 602.32159771 -410.8984375 600.98828125 C-418.35110391 592.00600211 -425.16859197 582.7620872 -431.5625 573 C-432.04041992 572.27474121 -432.51833984 571.54948242 -433.01074219 570.80224609 C-451.91335371 541.97482899 -465.49109602 511.59319526 -476.5625 479 C-477.01665283 477.69023193 -477.01665283 477.69023193 -477.47998047 476.35400391 C-485.22564751 453.94771074 -489.57451682 430.47434284 -492.5625 407 C-492.68109375 406.07880371 -492.7996875 405.15760742 -492.921875 404.20849609 C-496.65930654 373.49148064 -495.65225737 341.61121422 -491.5625 311 C-491.4397168 310.0399707 -491.31693359 309.07994141 -491.19042969 308.09082031 C-483.43185475 248.13819583 -458.80657259 186.57539936 -421.84179688 138.66015625 C-420.56378479 137.00166728 -419.30375961 135.33078894 -418.046875 133.65625 C-402.05058319 112.45230093 -383.89956986 91.29062314 -362.9375 74.8828125 C-360.70623238 73.11394573 -358.64275561 71.25461364 -356.5625 69.3125 C-285.73819077 5.72293204 -185.63305493 -21.07739134 0 0 Z M-155.75 -5.1875 C-156.49838135 -5.10481873 -157.2467627 -5.02213745 -158.01782227 -4.93695068 C-173.52514916 -3.17748865 -188.66266115 0.13129252 -203.8125 3.8125 C-204.88735153 4.07287048 -204.88735153 4.07287048 -205.98391724 4.33850098 C-219.92606274 7.72906321 -233.82061801 11.35982836 -247.0703125 16.953125 C-249.61966883 18.02401449 -252.19532184 19.01437438 -254.77587891 20.00708008 C-262.94388607 23.18144097 -270.74703027 26.90565014 -278.52099609 30.94238281 C-280.54601939 31.99146209 -282.57904243 33.02361483 -284.61328125 34.0546875 C-307.78285733 45.92297119 -329.42383834 60.53453724 -349.5625 77 C-350.09891113 77.43199707 -350.63532227 77.86399414 -351.18798828 78.30908203 C-360.84658772 86.1373262 -369.63545639 94.86377049 -378.4375 103.625 C-379.01954193 104.2017749 -379.60158386 104.7785498 -380.20126343 105.37280273 C-387.47239822 112.59304919 -394.20568712 119.9523344 -400.5625 128 C-401.51466966 129.13949671 -402.47100539 130.27554072 -403.43359375 131.40625 C-455.6634032 193.84534248 -483.30205897 276.12170032 -484.5625 357 C-484.59085938 358.17175781 -484.61921875 359.34351563 -484.6484375 360.55078125 C-484.6902295 363.70607722 -484.64154155 366.84521131 -484.5625 370 C-484.54461426 370.85432617 -484.52672852 371.70865234 -484.50830078 372.58886719 C-484.15925694 387.90093631 -482.91574989 402.86787434 -480.5625 418 C-480.41941406 418.94053223 -480.27632812 419.88106445 -480.12890625 420.85009766 C-471.13658421 479.05150943 -447.62293665 534.7083086 -412.5625 582 C-412.13517578 582.5789502 -411.70785156 583.15790039 -411.26757812 583.75439453 C-397.12802153 602.80750219 -380.96715237 621.47095577 -362.94921875 636.94921875 C-361.16861139 638.47920052 -359.40267982 640.02629336 -357.64453125 641.58203125 C-332.63796005 663.58148313 -304.52612354 681.6692778 -274.51171875 696.06005859 C-272.49948957 697.03038454 -270.49981783 698.02390766 -268.5 699.01953125 C-259.22896739 703.5746566 -249.81776938 707.18395593 -240.0234375 710.45703125 C-237.3257479 711.3626761 -234.80645018 712.33417051 -232.1953125 713.48828125 C-202.08391313 726.01850873 -165.08625021 731.48157452 -132.5625 732 C-131.37881836 732.02046387 -130.19513672 732.04092773 -128.97558594 732.06201172 C-81.53734485 732.79323282 -35.38950124 727.21365783 9.4375 711 C10.58460449 710.59201172 10.58460449 710.59201172 11.75488281 710.17578125 C55.61183899 694.54517 95.67161147 669.85685634 130.4375 639 C131.406875 638.14277344 132.37625 637.28554687 133.375 636.40234375 C145.02739733 625.90568691 156.68026191 615.01284375 166.35546875 602.63671875 C168.25318265 600.23342253 170.23491752 597.9303412 172.25634766 595.63110352 C184.67498478 581.39818459 195.01626492 565.3349171 204.4375 549 C205.19281006 547.69482422 205.19281006 547.69482422 205.96337891 546.36328125 C230.2700268 503.95561996 245.86780687 457.22018588 252.125 408.75 C252.24456055 407.82872314 252.36412109 406.90744629 252.48730469 405.95825195 C254.20260802 391.77219622 254.64670435 377.52623919 254.625 363.25 C254.62439575 362.50220276 254.6237915 361.75440552 254.62316895 360.98394775 C254.57209131 337.39293218 252.82228085 314.20847255 248.4375 291 C248.21320312 289.81277344 247.98890625 288.62554688 247.7578125 287.40234375 C240.62032925 253.96191297 228.3416738 221.21142692 212.4375 191 C211.86491455 189.89470947 211.86491455 189.89470947 211.28076172 188.76708984 C201.200389 169.39167108 189.20978265 150.96165337 175.4375 134 C174.68210937 133.05382812 173.92671875 132.10765625 173.1484375 131.1328125 C168.77609806 125.70870756 164.23751386 120.47125013 159.54296875 115.32421875 C157.69772445 113.28726075 155.9066833 111.21729153 154.125 109.125 C146.86658954 100.80314801 138.85573605 93.13334739 130.4375 86 C129.42340881 85.1118978 128.4104921 84.2224536 127.3984375 83.33203125 C93.90839949 54.01314389 54.93822726 31.82886562 13.4375 16 C11.88675781 15.40251953 11.88675781 15.40251953 10.3046875 14.79296875 C3.1045981 12.09562183 -4.23888386 9.82899544 -11.59423828 7.59814453 C-13.39699908 7.05029487 -15.19671324 6.49244572 -16.99609375 5.93359375 C-30.89106264 1.7601932 -45.2429652 -0.76257269 -59.5625 -3 C-60.51125 -3.16242187 -61.46 -3.32484375 -62.4375 -3.4921875 C-65.80645362 -4.05081501 -69.17917834 -4.53604239 -72.5625 -5 C-73.20509766 -5.09313477 -73.84769531 -5.18626953 -74.50976562 -5.28222656 C-101.15064824 -8.99283108 -129.08311999 -8.15455291 -155.75 -5.1875 Z " fill="#F9FAFF" transform="translate(1175.5625,698)"/>
<path d="M0 0 C0.67528244 -0.00564468 1.35056488 -0.01128937 2.04631042 -0.0171051 C4.29411713 -0.02931202 6.54125436 -0.0227341 8.7890625 -0.01171875 C9.95850906 -0.00848602 9.95850906 -0.00848602 11.15158081 -0.00518799 C36.60306517 0.10665541 61.67173935 2.73290337 86.8515625 6.30078125 C88.18418625 6.48885345 88.18418625 6.48885345 89.54373169 6.6807251 C98.57216189 7.96886611 107.48306163 9.39236715 116.34985352 11.55957031 C119.62500857 12.35180764 122.91093904 13.04940176 126.2109375 13.73046875 C138.4548513 16.27019835 150.50396961 18.96085394 162.43652344 22.70068359 C165.24814829 23.55389025 168.08339912 24.31016979 170.92089844 25.07202148 C178.45074392 27.09872021 185.88526416 29.35277258 193.2890625 31.80078125 C194.12018555 32.07325684 194.95130859 32.34573242 195.80761719 32.62646484 C201.32631866 34.47946745 206.68436954 36.61296224 212.04443359 38.88183594 C215.86060284 40.48881867 219.69433526 42.04887914 223.53125 43.60546875 C225.71329484 44.494689 227.89499464 45.3847519 230.07666016 46.27490234 C231.54727404 46.87372879 233.01862612 47.47074565 234.49072266 48.06591797 C244.3771886 52.06585309 253.93548141 56.40841084 263.4140625 61.30078125 C264.81206389 61.99828643 266.21147811 62.69297968 267.61328125 63.3828125 C308.3578594 83.59540838 346.62773181 107.83632734 381.68603516 136.87695312 C383.2449269 138.16142002 384.81886689 139.42757062 386.39453125 140.69140625 C392.02428651 145.20820845 397.38694793 149.94204823 402.64916992 154.87719727 C405.43777756 157.49187927 408.26218762 160.0442827 411.15917969 162.53881836 C415.17054156 166.04248879 418.97162418 169.71315517 422.73046875 173.484375 C423.39062485 174.14357437 424.05078094 174.80277374 424.73094177 175.48194885 C426.11441756 176.8647496 427.49665333 178.24879201 428.87768555 179.6340332 C430.97137919 181.73308468 433.07036124 183.82674065 435.16992188 185.91992188 C436.52375821 187.27441911 437.87728425 188.62922656 439.23046875 189.984375 C439.84733047 190.59921249 440.4641922 191.21404999 441.0997467 191.84751892 C445.40061535 196.1711996 449.43727327 200.67894728 453.4140625 205.30078125 C454.43635573 206.46845072 455.45961708 207.63527422 456.484375 208.80078125 C468.93108845 223.03366973 480.67247839 237.66585603 491.74707031 252.99414062 C492.81319828 254.46935695 493.88255388 255.94224949 494.95605469 257.41210938 C524.07823436 297.30392833 547.81663892 342.181194 565.60449219 388.20996094 C566.30441111 390.01759231 567.01812418 391.81987127 567.734375 393.62109375 C574.4481036 410.64995504 580.09203235 427.91593647 584.70068359 445.62402344 C585.38919161 448.20746008 586.12069648 450.77377544 586.87109375 453.33984375 C594.43867676 479.44850565 598.99838685 506.3670079 602.4140625 533.30078125 C602.55295898 534.33831543 602.69185547 535.37584961 602.83496094 536.44482422 C604.67819698 550.22138726 605.81906917 563.99190654 606.6015625 577.86328125 C606.6658847 578.98065674 606.6658847 578.98065674 606.73150635 580.12060547 C607.01667858 585.17902095 607.24421297 590.23718606 607.4140625 595.30078125 C607.44099182 596.07572937 607.46792114 596.85067749 607.4956665 597.64910889 C607.56727704 599.97964654 607.61405221 602.30932355 607.65234375 604.640625 C607.67443405 605.35062149 607.69652435 606.06061798 607.71928406 606.79212952 C607.74454036 609.90791565 607.57943372 612.00239986 606.05541992 614.75219727 C604.4140625 616.30078125 604.4140625 616.30078125 601.9140625 616.73828125 C598.91688823 616.21377575 598.20417756 615.72803426 596.4140625 613.30078125 C596.02929688 610.54980469 596.02929688 610.54980469 596.0078125 607.16015625 C595.98807373 605.88156738 595.96833496 604.60297852 595.94799805 603.28564453 C595.94295258 602.59794983 595.9379071 601.91025513 595.93270874 601.20172119 C595.90041112 597.47602431 595.8087275 593.7519275 595.71484375 590.02734375 C595.68545464 588.84693008 595.68545464 588.84693008 595.6554718 587.64266968 C595.00255638 564.063766 592.87112731 540.42623006 588.90380859 517.17529297 C588.45552318 514.54413022 588.03509894 511.91016254 587.62109375 509.2734375 C583.28051901 482.71825263 577.28349973 455.54422548 568.39160156 430.13525391 C567.2019869 426.68584675 566.0688932 423.21879991 564.9375 419.75 C564.27389694 417.72418453 563.60945708 415.69864599 562.94458008 413.67324829 C562.31304422 411.74885738 561.68286251 409.82402224 561.05273438 407.89916992 C558.49584462 400.20629826 555.61339694 392.74666128 552.4140625 385.30078125 C551.54087375 383.20269359 550.66982311 381.10371497 549.80078125 379.00390625 C545.06789555 367.65662594 540.28477419 356.41668373 534.57177734 345.52636719 C533.21211164 342.91255179 531.88595073 340.28271051 530.55859375 337.65234375 C506.12941057 289.53897816 474.79874594 244.78317768 438.11328125 205.21875 C436.33337191 203.2945933 434.56481653 201.35986255 432.80859375 199.4140625 C423.54254824 189.16255868 413.99248156 178.95058305 403.421875 170.02734375 C401.28447574 168.18934672 399.21748078 166.28295922 397.15209961 164.36474609 C392.05192325 159.631564 386.85429125 155.0894938 381.4296875 150.7265625 C379.21764034 148.9471826 377.02199411 147.15447572 374.8359375 145.34375 C351.81568271 126.33247667 327.15254804 109.42099029 301.4140625 94.30078125 C300.19807373 93.58172607 300.19807373 93.58172607 298.95751953 92.84814453 C275.1370629 78.83637735 250.48170676 66.44739217 224.8515625 56.11328125 C224.09736023 55.80908264 223.34315796 55.50488403 222.56610107 55.19146729 C213.8473568 51.6937024 205.07290169 48.39805601 196.18614197 45.3507843 C192.96132856 44.23825681 189.80097046 43.067128 186.67285156 41.70385742 C184.23532903 40.6543787 181.97464486 39.77449106 179.42578125 39.08984375 C178.72928467 38.89970703 178.03278809 38.70957031 177.31518555 38.51367188 C176.58468994 38.31966797 175.85419434 38.12566406 175.1015625 37.92578125 C173.49732186 37.49115836 171.89315724 37.05625479 170.2890625 36.62109375 C169.47695312 36.40227539 168.66484375 36.18345703 167.828125 35.95800781 C165.53961423 35.33496261 163.25736285 34.69360778 160.9765625 34.04296875 C150.35947344 31.02087154 139.67623043 28.38848199 128.92431641 25.89160156 C126.5556402 25.33410337 124.19332618 24.75584728 121.83203125 24.16796875 C113.92513274 22.21476071 106.1793086 20.70490768 98.07421875 19.79296875 C95.29712812 19.4195286 92.65493421 18.94894796 89.921875 18.3671875 C83.07542488 16.96950709 76.16384805 16.15217729 69.2265625 15.36328125 C68.48714417 15.27773987 67.74772583 15.19219849 66.98590088 15.10406494 C48.49125669 13.00285395 29.91132837 12.17031751 11.32348633 11.34008789 C10.15204575 11.28459274 8.98060516 11.2290976 7.77366638 11.17192078 C5.55168135 11.06718366 3.32930223 10.97042277 1.10658264 10.88264465 C0.12056564 10.83548813 -0.86545135 10.7883316 -1.88134766 10.73974609 C-2.74539215 10.70295746 -3.60943665 10.66616882 -4.49966431 10.62826538 C-6.5859375 10.30078125 -6.5859375 10.30078125 -8.5859375 8.30078125 C-8.8359375 5.30078125 -8.8359375 5.30078125 -8.5859375 2.30078125 C-5.76839602 -0.51676023 -3.94826778 0.02774627 0 0 Z " fill="#F9FAFF" transform="translate(1031.5859375,450.69921875)"/>
<path d="M0 0 C3 0.25 3 0.25 5 2.25 C5.27124023 5.25805664 5.27124023 5.25805664 5.30859375 9.16015625 C5.33143211 10.62305246 5.35464248 12.0859429 5.37817383 13.54882812 C5.38732819 14.32427979 5.39648254 15.09973145 5.40591431 15.89868164 C5.83866671 48.9701638 9.56487287 81.70770732 15.62504578 114.22216797 C15.97233655 116.10039021 16.30913444 117.98054442 16.64501953 119.86083984 C18.37635644 129.41135995 20.44341666 138.84681593 22.74194336 148.27636719 C23.30995954 150.61454247 23.86519612 152.95551595 24.41992188 155.296875 C26.70259599 164.78647935 29.44828494 174.01311552 32.64477539 183.23486328 C34.30216151 188.04658725 35.64107553 192.92491342 36.9453125 197.84375 C38.0688995 201.47251987 39.43279592 204.93205993 40.86669922 208.44726562 C42.07308129 211.43073529 43.22746302 214.43092542 44.375 217.4375 C52.47765138 238.53070591 61.58936293 259.11356034 71.94873047 279.20507812 C72.69774358 280.66205301 73.4409383 282.12202528 74.18017578 283.58398438 C93.94185486 322.66360371 119.0493689 359.34657918 147.56005859 392.56738281 C149.08474026 394.34902168 150.59955505 396.1387341 152.11328125 397.9296875 C158.94606816 405.99761025 158.94606816 405.99761025 166.3190918 413.56811523 C168.02208919 415.27210202 169.57846409 417.04542515 171.140625 418.87890625 C175.20994235 423.5583266 179.54288707 427.94013828 183.9375 432.3125 C184.69740234 433.07626953 185.45730469 433.84003906 186.24023438 434.62695312 C190.42462751 438.80419956 194.69479818 442.81330323 199.17553711 446.6706543 C201.78148689 448.92649387 204.2903985 451.27574182 206.8125 453.625 C211.40424681 457.86186417 216.10954114 461.90405883 220.98046875 465.8203125 C223.2066716 467.61164261 225.41488116 469.41738303 227.61328125 471.2421875 C251.6619283 491.13794043 277.94091726 508.71479397 305 524.25 C306.10118164 524.88228516 306.10118164 524.88228516 307.22460938 525.52734375 C312.44491413 528.50639767 317.71172897 531.39368742 323 534.25 C323.83241211 534.70310547 324.66482422 535.15621094 325.52246094 535.62304688 C337.51088091 542.12327608 349.70205942 548.0734677 362.125 553.6875 C363.09522598 554.1272113 363.09522598 554.1272113 364.08505249 554.57580566 C372.61502437 558.43049449 381.22550395 561.98290041 390 565.25 C390.88252441 565.58265869 391.76504883 565.91531738 392.67431641 566.25805664 C450.44998382 587.93927109 511.34627187 601.50360239 573.12109375 603.73828125 C574.16445389 603.77721497 575.20781403 603.81614868 576.28279114 603.85626221 C581.49393977 604.04708769 586.70415475 604.2127218 591.91723633 604.34033203 C593.83546569 604.4021603 595.75367946 604.46447477 597.671875 604.52734375 C598.55584457 604.54090408 599.43981415 604.55446442 600.35057068 604.56843567 C606.367877 604.79034468 606.367877 604.79034468 609.58691406 607.13110352 C611 609.25 611 609.25 610.9375 611.875 C610 614.25 610 614.25 607 616.25 C604.03442383 616.46948242 604.03442383 616.46948242 600.39453125 616.41796875 C599.40245415 616.40566475 599.40245415 616.40566475 598.39033508 616.39311218 C596.25962008 616.36016563 594.13016224 616.30839784 592 616.25 C590.97879059 616.2227182 590.97879059 616.2227182 589.93695068 616.19488525 C499.18797425 613.55354853 411.46520081 591.14681521 266 513.25 C264.7647935 512.41466831 263.52908038 511.58008546 262.29296875 510.74609375 C252.63698412 504.20448587 243.2523072 497.34972961 234 490.25 C233.09121094 489.55390625 233.09121094 489.55390625 232.1640625 488.84375 C220.21337774 479.65894425 208.78001975 469.91069343 197.6953125 459.69921875 C195.58846418 457.78473484 193.45812254 455.91775125 191.30249023 454.05957031 C187.19855526 450.47139557 183.31233965 446.7073841 179.46484375 442.84765625 C178.78249161 442.16626083 178.10013947 441.48486542 177.39710999 440.78282166 C175.96655563 439.35294259 174.53724233 437.92182089 173.10913086 436.48950195 C170.94300926 434.31802289 168.77159826 432.15193675 166.59960938 429.98632812 C165.20020013 428.58625798 163.80110116 427.18587762 162.40234375 425.78515625 C161.76360825 425.14844498 161.12487274 424.5117337 160.46678162 423.85572815 C156.11430101 419.48091414 152.02262369 414.92829725 148 410.25 C146.97774425 409.08229773 145.9544872 407.91547029 144.9296875 406.75 C115.14380327 372.68966992 90.15268349 335.66176609 68 296.25 C67.30825684 295.02192627 67.30825684 295.02192627 66.60253906 293.76904297 C51.60867316 266.90064393 39.24029067 237.77779554 29.203125 208.7265625 C28.28150285 206.06343356 27.33206749 203.41787597 26.359375 200.7734375 C22.04038438 188.91638442 18.70701594 176.95976704 15.63916016 164.72509766 C14.84350843 161.64399866 13.93010465 158.60543498 13 155.5625 C0.25587901 111.54218209 -5.06512175 63.43106098 -5.25 17.6875 C-5.25535767 16.92768829 -5.26071533 16.16787659 -5.26623535 15.38504028 C-5.27781687 13.23435731 -5.27456902 11.08427856 -5.265625 8.93359375 C-5.26336914 7.69150146 -5.26111328 6.44940918 -5.25878906 5.16967773 C-4.89709122 1.08897533 -4.07365614 0.33947134 0 0 Z " fill="#F9FAFF" transform="translate(455,1055.75)"/>
<path d="M0 0 C8.86969553 7.82620194 15.90852431 18.98583879 16.67578125 30.97265625 C16.90260106 39.82373742 16.50082505 47.18683935 12.4375 55.25 C12.025 56.09949219 11.6125 56.94898438 11.1875 57.82421875 C5.43752216 68.49108106 -3.2758576 75.17996835 -14.5625 79.25 C-15.56023437 79.61738281 -15.56023437 79.61738281 -16.578125 79.9921875 C-27.65692648 83.39030728 -39.98208702 81.78004783 -50.125 76.5625 C-62.14534161 69.5883548 -69.87853233 59.91840509 -73.90234375 46.48828125 C-76.71221152 32.70496539 -73.6399308 21.25527209 -66.25 9.59765625 C-58.57075196 -1.08574206 -48.89907287 -6.97782882 -35.99609375 -9.26953125 C-22.75615231 -11.1222193 -10.8058472 -8.1043854 0 0 Z " fill="#FDFEFF" transform="translate(1089.5625,1024.75)"/>
</svg>
